<svg xmlns="http://www.w3.org/2000/svg" xmlns:xlink="http://www.w3.org/1999/xlink" viewBox="0 0 207.89 231.4"><defs><style>.cls-1{fill:url(#radial-gradient);}.cls-2{fill:url(#radial-gradient-2);}.cls-3{clip-path:url(#clip-path);}.cls-4{fill:url(#radial-gradient-4);}.cls-5{clip-path:url(#clip-path-2);}.cls-6{fill:url(#radial-gradient-170);}.cls-7{fill:url(#radial-gradient-282);}.cls-8{fill:url(#radial-gradient-332);}</style><radialGradient id="radial-gradient" cx="149.57" cy="203.3" r="221.88" gradientUnits="userSpaceOnUse"><stop offset="0" stop-color="#00a99d"/><stop offset="0.12" stop-color="#188c9a"/><stop offset="0.29" stop-color="#346a97"/><stop offset="0.46" stop-color="#4a4f94"/><stop offset="0.63" stop-color="#5a3c92"/><stop offset="0.81" stop-color="#633191"/><stop offset="1" stop-color="#662d91"/></radialGradient><radialGradient id="radial-gradient-2" cx="95.66" cy="15.97" r="46.54" xlink:href="#radial-gradient"/><clipPath id="clip-path"><path class="cls-1" d="M151.91,182c10.54,21.74,22.37,33.55,19,37-4.61,4.71-36.56-7.2-54-33-25.23-37.33-29.4-117.53-35-136-.49-1.62-1.71-5.39-5-7-3.88-1.9-8.74.14-12,2a28.68,28.68,0,0,1,52,6C133.64,100.46,126.06,128.68,151.91,182Z"/></clipPath><radialGradient id="radial-gradient-4" cx="172.14" cy="203.73" r="261.05" xlink:href="#radial-gradient"/><clipPath id="clip-path-2"><path class="cls-2" d="M64.91,45c1.07-1.37,9.62-11.92,24-12a31,31,0,0,1,27,16c-6.85-22.73-22.72-38.69-40-40-21.63-1.65-37.15,14.75-43,28-3.92,8.86-6.6,23.35-1,27S50.51,60,64.91,45Z"/></clipPath><radialGradient id="radial-gradient-170" cx="91.81" cy="24.64" r="97.78" xlink:href="#radial-gradient"/><radialGradient id="radial-gradient-282" cx="91.81" cy="24.64" r="97.78" xlink:href="#radial-gradient"/><radialGradient id="radial-gradient-332" cx="73.75" cy="204.35" r="50.07" gradientTransform="matrix(-0.4, 1.33, -2.03, -1.21, 515.57, 289.72)" gradientUnits="userSpaceOnUse"><stop offset="0.12" stop-color="#00a99d"/><stop offset="0.22" stop-color="#188c9a"/><stop offset="0.37" stop-color="#346a97"/><stop offset="0.52" stop-color="#4a4f94"/><stop offset="0.67" stop-color="#5a3c92"/><stop offset="0.83" stop-color="#633191"/><stop offset="1" stop-color="#662d91"/></radialGradient></defs><title>Asset 1</title><g id="Layer_2" data-name="Layer 2"><g id="Layer_1-2" data-name="Layer 1"><path class="cls-1" d="M151.91,182c10.54,21.74,22.37,33.55,19,37-4.61,4.71-36.56-7.2-54-33-25.23-37.33-29.4-117.53-35-136-.49-1.62-1.71-5.39-5-7-3.88-1.9-8.74.14-12,2a28.68,28.68,0,0,1,52,6C133.64,100.46,126.06,128.68,151.91,182Z"/><g class="cls-3"><rect class="cls-4" x="64.91" y="30.49" width="135" height="192.93"/><path class="cls-4" d="M79.17,198.09c-14.94-26.87-19-56.48-13.39-82.63S86.53,66.6,110,53.56s50.74-14,75.9-4.9a109.54,109.54,0,0,1,18.38,8.63h-3.36V224.42H99.08v.48Q95.3,221,91.8,216.74A128.37,128.37,0,0,1,79.17,198.09Z"/><path class="cls-4" d="M79.54,198.3C64.64,171.52,60.63,142,66.19,116s20.68-48.69,44.05-61.69,50.57-13.91,75.65-4.88A109.09,109.09,0,0,1,204.2,58h-3.29V224.42H99.38v.6q-3.78-3.87-7.26-8.14A127.39,127.39,0,0,1,79.54,198.3Z"/><path class="cls-4" d="M79.9,198.51c-14.84-26.69-18.84-56.1-13.3-82.07S87.21,67.92,110.5,55s50.39-13.86,75.38-4.86a108.09,108.09,0,0,1,18.26,8.57h-3.23V224.42H99.67v.71c-2.5-2.57-4.92-5.27-7.23-8.1A127.11,127.11,0,0,1,79.9,198.51Z"/><path class="cls-4" d="M80.26,198.72c-14.79-26.6-18.77-55.9-13.25-81.79s20.53-48.35,43.75-61.26S161,41.85,185.88,50.81a108.9,108.9,0,0,1,18.19,8.55h-3.16V224.42H100v.83c-2.49-2.56-4.9-5.25-7.2-8.08A126.2,126.2,0,0,1,80.26,198.72Z"/><path class="cls-4" d="M80.62,198.92c-14.74-26.5-18.71-55.7-13.21-81.5s20.47-48.19,43.6-61,50.05-13.77,74.87-4.84A109.25,109.25,0,0,1,204,60.05h-3.09V224.42H100.26v1q-3.74-3.83-7.18-8.05A125.48,125.48,0,0,1,80.62,198.92Z"/><path class="cls-4" d="M81,199.13c-14.69-26.41-18.64-55.51-13.16-81.22s20.4-48,43.45-60.84,49.87-13.72,74.6-4.82a108.24,108.24,0,0,1,18.07,8.49h-3V224.42H100.55v1.06q-3.72-3.81-7.15-8A124,124,0,0,1,81,199.13Z"/><path class="cls-4" d="M81.34,199.34C66.71,173,62.77,144,68.23,118.4s20.32-47.85,43.29-60.63,49.7-13.67,74.35-4.8a107.79,107.79,0,0,1,18,8.46h-3v163H100.84v1.18q-3.7-3.79-7.12-8A125.08,125.08,0,0,1,81.34,199.34Z"/><path class="cls-4" d="M81.7,199.55c-14.58-26.22-18.51-55.13-13.06-80.66s20.25-47.68,43.14-60.41,49.53-13.63,74.09-4.79a107.06,107.06,0,0,1,17.94,8.43h-2.9v162.3H101.14v1.3c-2.46-2.53-4.84-5.18-7.11-8A124.36,124.36,0,0,1,81.7,199.55Z"/><path class="cls-4" d="M82.07,199.76c-14.54-26.13-18.45-54.94-13-80.37s20.19-47.52,43-60.21,49.35-13.58,73.82-4.77a106.34,106.34,0,0,1,17.88,8.4h-2.83V224.42H101.43v1.42q-3.68-3.78-7.08-7.94A124.57,124.57,0,0,1,82.07,199.76Z"/><path class="cls-4" d="M82.43,200c-14.49-26-18.39-54.74-13-80.09s20.11-47.35,42.84-60,49.18-13.53,73.57-4.75a106.73,106.73,0,0,1,17.81,8.37h-2.76V224.42H101.73V226q-3.67-3.75-7.06-7.91A123.65,123.65,0,0,1,82.43,200Z"/><path class="cls-4" d="M82.79,200.18c-14.43-26-18.32-54.55-12.93-79.81s20-47.19,42.69-59.78,49-13.49,73.31-4.74a106.75,106.75,0,0,1,17.75,8.34h-2.7V224.42H102v1.65q-3.66-3.75-7-7.88A123.37,123.37,0,0,1,82.79,200.18Z"/><path class="cls-4" d="M83.15,200.39C68.77,174.53,64.9,146,70.26,120.86s20-47,42.55-59.57,48.83-13.44,73-4.72a105.65,105.65,0,0,1,17.69,8.31h-2.63V224.42h-98.6v1.77q-3.63-3.74-7-7.86A123.25,123.25,0,0,1,83.15,200.39Z"/><path class="cls-4" d="M83.51,200.59c-14.33-25.76-18.19-54.16-12.84-79.24S90.57,74.5,113.06,62s48.66-13.39,72.79-4.7a105.29,105.29,0,0,1,17.63,8.28h-2.57V224.42h-98.3v1.88q-3.63-3.72-7-7.82A121.21,121.21,0,0,1,83.51,200.59Z"/><path class="cls-4" d="M83.87,200.8c-14.28-25.67-18.12-54-12.79-79s19.83-46.68,42.24-59.15S161.8,49.35,185.85,58a104.47,104.47,0,0,1,17.56,8.25h-2.5V224.42h-98v2q-3.62-3.71-7-7.8A122.36,122.36,0,0,1,83.87,200.8Z"/><path class="cls-4" d="M84.24,201C70,175.43,66.18,147.24,71.49,122.33S91.24,75.82,113.57,63.4s48.32-13.3,72.28-4.67A104.91,104.91,0,0,1,203.35,67h-2.44V224.42H103.19v2.12q-3.6-3.69-6.93-7.77A120.7,120.7,0,0,1,84.24,201Z"/><path class="cls-4" d="M84.6,201.22c-14.18-25.49-18-53.58-12.71-78.4S91.58,76.47,113.83,64.1s48.14-13.25,72-4.65a104.6,104.6,0,0,1,17.44,8.19h-2.37V224.42H103.49v2.24q-3.6-3.69-6.91-7.75A121.11,121.11,0,0,1,84.6,201.22Z"/><path class="cls-4" d="M85,201.43C70.83,176,67,148,72.3,123.31S91.92,77.13,114.09,64.8s48-13.2,71.75-4.63a103.41,103.41,0,0,1,17.37,8.16h-2.3V224.42H103.78v2.35q-3.57-3.66-6.88-7.71A120.29,120.29,0,0,1,85,201.43Z"/><path class="cls-4" d="M85.32,201.64C57.17,151,70.16,90.08,114.34,65.5c22.09-12.28,47.8-13.15,71.5-4.61A103.43,103.43,0,0,1,203.15,69h-2.24v155.4H104.07v2.47q-3.55-3.66-6.85-7.69A119.38,119.38,0,0,1,85.32,201.64Z"/><path class="cls-4" d="M85.68,201.85C57.63,151.42,70.58,90.69,114.6,66.21c22-12.24,47.62-13.11,71.23-4.6a102,102,0,0,1,17.25,8.1h-2.17V224.42H104.37V227q-3.56-3.64-6.83-7.66A119.89,119.89,0,0,1,85.68,201.85Z"/><path class="cls-4" d="M86,202.06C58.1,151.81,71,91.3,114.86,66.91c21.92-12.2,47.44-13.06,71-4.58A102,102,0,0,1,203,70.4h-2.11v154H104.66v2.71q-3.54-3.63-6.81-7.64A119.71,119.71,0,0,1,86,202.06Z"/><path class="cls-4" d="M86.4,202.27c-27.84-50.07-15-110.35,28.71-134.66,21.85-12.15,47.27-13,70.72-4.56a102.74,102.74,0,0,1,17.12,8h-2V224.42H105v2.82q-3.53-3.62-6.78-7.6A119.43,119.43,0,0,1,86.4,202.27Z"/><path class="cls-4" d="M86.77,202.47C59,152.6,71.83,92.53,115.37,68.32c21.77-12.11,47.1-13,70.45-4.56a102.48,102.48,0,0,1,17.06,8h-2V224.42H105.25v2.94q-3.51-3.6-6.76-7.57A117.87,117.87,0,0,1,86.77,202.47Z"/><path class="cls-4" d="M87.13,202.68C59.49,153,72.25,93.14,115.62,69c21.69-12.07,46.93-12.91,70.2-4.54a102.13,102.13,0,0,1,17,8h-1.91v152H105.54v3.06q-3.5-3.58-6.73-7.55A117.75,117.75,0,0,1,87.13,202.68Z"/><path class="cls-4" d="M87.49,202.89C60,153.38,72.66,93.76,115.88,69.72c21.61-12,46.75-12.86,69.94-4.52a101.31,101.31,0,0,1,16.93,8h-1.84V224.42H105.83v3.17q-3.48-3.57-6.7-7.51A117.47,117.47,0,0,1,87.49,202.89Z"/><path class="cls-4" d="M87.85,203.1C60.42,153.77,73.08,94.37,116.14,70.42c21.53-12,46.58-12.81,69.67-4.5a100.68,100.68,0,0,1,16.88,7.93h-1.78V224.42H106.13v3.29q-3.48-3.56-6.68-7.49A116.55,116.55,0,0,1,87.85,203.1Z"/><path class="cls-4" d="M88.21,203.31C60.88,154.17,73.5,95,116.39,71.13c21.45-11.93,46.41-12.77,69.42-4.49a100.65,100.65,0,0,1,16.81,7.9h-1.71V224.42H106.42v3.41c-2.3-2.37-4.53-4.86-6.66-7.46A117.81,117.81,0,0,1,88.21,203.31Z"/><path class="cls-4" d="M88.57,203.52c-27.23-49-14.66-107.92,28.08-131.69,21.37-11.89,46.23-12.72,69.16-4.47a100.62,100.62,0,0,1,16.74,7.87h-1.64V224.42h-94.2V228c-2.29-2.36-4.51-4.84-6.63-7.44A116.89,116.89,0,0,1,88.57,203.52Z"/><path class="cls-4" d="M88.94,203.73C61.81,155,74.33,96.21,116.91,72.53c21.28-11.84,46.05-12.67,68.9-4.45a100.26,100.26,0,0,1,16.68,7.84h-1.58v148.5H107v3.64q-3.44-3.51-6.61-7.4A116.56,116.56,0,0,1,88.94,203.73Z"/><path class="cls-4" d="M89.3,203.94c-27-48.6-14.55-107.12,27.86-130.71,21.21-11.79,45.89-12.62,68.64-4.43a99.17,99.17,0,0,1,16.62,7.81h-1.51V224.42H107.3v3.76q-3.42-3.51-6.58-7.38A115.64,115.64,0,0,1,89.3,203.94Z"/><path class="cls-4" d="M89.66,204.15C62.73,155.73,75.16,97.44,117.42,73.94c21.13-11.75,45.71-12.58,68.38-4.42a98.81,98.81,0,0,1,16.56,7.78h-1.45V224.42H107.6v3.88q-3.42-3.5-6.56-7.35A114,114,0,0,1,89.66,204.15Z"/><path class="cls-4" d="M90,204.35C63.2,156.13,75.58,98.05,117.67,74.64c21-11.71,45.54-12.53,68.13-4.4A98,98,0,0,1,202.29,78h-1.38V224.42h-93v4c-2.26-2.33-4.45-4.77-6.53-7.33A114,114,0,0,1,90,204.35Z"/><path class="cls-4" d="M90.38,204.56C63.66,156.52,76,98.67,117.93,75.34c21-11.66,45.37-12.48,67.86-4.38a97.69,97.69,0,0,1,16.43,7.72h-1.31V224.42H108.18v4.11q-3.37-3.47-6.51-7.29A113.93,113.93,0,0,1,90.38,204.56Z"/><path class="cls-4" d="M90.74,204.77C64.12,156.91,76.41,99.28,118.19,76c20.88-11.61,45.19-12.43,67.6-4.36a98.12,98.12,0,0,1,16.37,7.69h-1.25v145H108.48v4.23q-3.37-3.45-6.49-7.27A114.34,114.34,0,0,1,90.74,204.77Z"/><path class="cls-4" d="M91.1,205C64.59,157.3,76.83,99.89,118.44,76.75c20.81-11.58,45-12.39,67.35-4.35a97.3,97.3,0,0,1,16.3,7.66h-1.18V224.42H108.77v4.35q-3.36-3.45-6.46-7.24A113.52,113.52,0,0,1,91.1,205Z"/><path class="cls-4" d="M91.47,205.19C65.05,157.7,77.24,100.51,118.7,77.45c20.73-11.53,44.85-12.34,67.08-4.33A97,97,0,0,1,202,80.75h-1.12V224.42H109.06v4.46q-3.34-3.42-6.43-7.21A112.55,112.55,0,0,1,91.47,205.19Z"/><path class="cls-4" d="M91.83,205.4C65.52,158.09,77.66,101.12,119,78.15c20.64-11.48,44.67-12.29,66.82-4.31A95.86,95.86,0,0,1,202,81.44h-1.05v143H109.36V229q-3.33-3.42-6.41-7.18A112.81,112.81,0,0,1,91.83,205.4Z"/><path class="cls-4" d="M92.19,205.61C66,158.48,78.08,101.73,119.21,78.86c20.57-11.44,44.5-12.25,66.57-4.3a96.66,96.66,0,0,1,16.12,7.57h-1V224.42H109.65v4.7q-3.32-3.41-6.38-7.16A111.36,111.36,0,0,1,92.19,205.61Z"/><path class="cls-4" d="M92.55,205.82C66.44,158.87,78.49,102.35,119.47,79.56c20.49-11.4,44.32-12.2,66.3-4.28a95.2,95.2,0,0,1,16.06,7.54h-.92v141.6h-91v4.82q-3.3-3.39-6.36-7.13A112.36,112.36,0,0,1,92.55,205.82Z"/><path class="cls-4" d="M92.91,206c-26-46.75-14-103.06,26.81-125.76,20.41-11.35,44.16-12.15,66.05-4.26a95.53,95.53,0,0,1,16,7.51h-.85V224.42H110.24v4.93q-3.3-3.37-6.34-7.1A110.47,110.47,0,0,1,92.91,206Z"/><path class="cls-4" d="M93.27,206.23C67.37,159.66,79.33,103.57,120,81c20.33-11.3,44-12.1,65.79-4.25A95.65,95.65,0,0,1,201.7,84.2h-.79V224.42H110.53v5.05q-3.28-3.36-6.31-7.07A111,111,0,0,1,93.27,206.23Z"/><path class="cls-4" d="M93.64,206.44c-25.81-46.39-13.9-102.25,26.6-124.77,20.24-11.26,43.8-12.06,65.52-4.24a94.55,94.55,0,0,1,15.87,7.46h-.72V224.42H110.82v5.17c-2.17-2.24-4.27-4.58-6.28-7.05A109.22,109.22,0,0,1,93.64,206.44Z"/><path class="cls-4" d="M94,206.65C68.3,160.44,80.16,104.8,120.49,82.37c20.17-11.22,43.64-12,65.27-4.22a94.2,94.2,0,0,1,15.81,7.43h-.66V224.42H111.12v5.28q-3.25-3.33-6.26-7A109.73,109.73,0,0,1,94,206.65Z"/><path class="cls-4" d="M94.36,206.86c-25.6-46-13.78-101.45,26.39-123.79,20.09-11.17,43.46-12,65-4.2a94.17,94.17,0,0,1,15.74,7.4h-.59V224.42h-89.5v5.4q-3.24-3.31-6.23-7A108.81,108.81,0,0,1,94.36,206.86Z"/><path class="cls-4" d="M94.72,207.07C69.22,161.23,81,106,121,83.77c20-11.12,43.28-11.91,64.75-4.18A93.72,93.72,0,0,1,201.43,87h-.52V224.42H111.7v5.52q-3.23-3.31-6.2-7A108.54,108.54,0,0,1,94.72,207.07Z"/><path class="cls-4" d="M95.08,207.28c-25.39-45.66-13.67-100.64,26.18-122.8,19.93-11.09,43.11-11.87,64.49-4.17a93.51,93.51,0,0,1,15.62,7.34h-.46V224.42H112v5.64q-3.21-3.3-6.19-6.94A108.61,108.61,0,0,1,95.08,207.28Z"/><path class="cls-4" d="M95.44,207.49C70.15,162,81.83,107.26,121.52,85.18c19.84-11,42.94-11.82,64.23-4.15a93.06,93.06,0,0,1,15.55,7.31h-.39V224.42H112.29v5.75c-2.13-2.18-4.19-4.49-6.16-6.9A108.08,108.08,0,0,1,95.44,207.49Z"/><path class="cls-4" d="M95.8,207.7c-25.18-45.29-13.56-99.83,26-121.82,19.77-11,42.77-11.76,64-4.13A92.33,92.33,0,0,1,201.24,89h-.33V224.42H112.58v5.87q-3.18-3.27-6.13-6.88A107.41,107.41,0,0,1,95.8,207.7Z"/><path class="cls-4" d="M96.17,207.9C71.08,162.8,82.66,108.48,122,86.59c19.69-11,42.59-11.72,63.71-4.12a92.4,92.4,0,0,1,15.43,7.25h-.26v134.7h-88v6q-3.18-3.25-6.11-6.85A106.4,106.4,0,0,1,96.17,207.9Z"/><path class="cls-4" d="M96.53,208.11c-25-44.92-13.45-99,25.76-120.82,19.6-10.91,42.42-11.67,63.45-4.1a91.21,91.21,0,0,1,15.36,7.22h-.19v134H113.17v6.11q-3.17-3.25-6.08-6.83A106.27,106.27,0,0,1,96.53,208.11Z"/><path class="cls-4" d="M96.89,208.32C72,163.58,83.49,109.71,122.54,88c19.53-10.86,42.25-11.62,63.2-4.08A91.22,91.22,0,0,1,201,91.1h-.13V224.42H113.47v6.22c-2.1-2.15-4.13-4.42-6.06-6.79A106,106,0,0,1,96.89,208.32Z"/><path class="cls-4" d="M97.25,208.53C72.47,164,83.91,110.32,122.8,88.69c19.44-10.81,42.07-11.57,62.93-4.06A90.91,90.91,0,0,1,201,91.79h-.06V224.42H113.76v6.34q-3.14-3.21-6-6.77A105.81,105.81,0,0,1,97.25,208.53Z"/><path class="cls-4" d="M97.61,208.74c-24.68-44.37-13.28-97.8,25.45-119.34,19.36-10.77,41.89-11.53,62.67-4.05a90.56,90.56,0,0,1,15.18,7.13c1.22.71,2.43,1.46,3.63,2.24h-3.63v129.7H114.05v6.46q-3.12-3.21-6-6.74A105.79,105.79,0,0,1,97.61,208.74Z"/><path class="cls-4" d="M98,209C73.4,164.76,84.74,111.55,123.31,90.1c19.29-10.73,41.73-11.48,62.42-4a89.74,89.74,0,0,1,15.11,7.1c1.22.71,2.43,1.46,3.62,2.23h-3.55v129H114.35V231q-3.12-3.18-6-6.71A105.41,105.41,0,0,1,98,209Z"/><path class="cls-4" d="M98.34,209.16c-24.48-44-13.18-97,25.23-118.36,19.2-10.68,41.55-11.43,62.15-4a89.53,89.53,0,0,1,15.06,7.07q1.82,1.06,3.6,2.22h-3.47V224.42H108.68A103.75,103.75,0,0,1,98.34,209.16Z"/><path class="cls-4" d="M98.7,209.37C74.32,165.55,85.57,112.78,123.82,91.5c19.13-10.63,41.38-11.38,61.9-4a89.08,89.08,0,0,1,15,7q3.63,2.11,7.11,4.61h-6.91V224.42H109v.15A103.37,103.37,0,0,1,98.7,209.37Z"/><path class="cls-4" d="M99.06,209.58c-24.27-43.64-13.07-96.19,25-117.37,19-10.6,41.21-11.34,61.64-4a87.91,87.91,0,0,1,14.92,7q3.62,2.12,7.08,4.59h-6.81V224.42H109.32v.3A103.34,103.34,0,0,1,99.06,209.58Z"/><path class="cls-4" d="M99.42,209.78c-24.17-43.45-13-95.78,24.92-116.87,19-10.55,41-11.29,61.38-4a88.69,88.69,0,0,1,14.86,7c2.4,1.4,4.75,2.93,7,4.57h-6.72V224.42H109.63v.44A102.73,102.73,0,0,1,99.42,209.78Z"/><path class="cls-4" d="M99.78,210c-24.06-43.27-13-95.37,24.81-116.38,18.89-10.5,40.86-11.24,61.12-4a88.07,88.07,0,0,1,14.8,7c2.39,1.4,4.73,2.91,7,4.55h-6.62V224.42H110V225A102.45,102.45,0,0,1,99.78,210Z"/><path class="cls-4" d="M100.14,210.2c-24-43.08-12.9-95,24.71-115.89,18.8-10.45,40.68-11.19,60.86-3.93a88.88,88.88,0,0,1,14.74,6.93c2.37,1.39,4.71,2.9,7,4.53h-6.52V224.42H110.27v.73A102.32,102.32,0,0,1,100.14,210.2Z"/><path class="cls-4" d="M100.5,210.41C76.64,167.51,87.66,115.85,125.11,95c18.72-10.42,40.51-11.15,60.6-3.92A88.06,88.06,0,0,1,200.38,98c2.37,1.38,4.69,2.89,7,4.51h-6.43V224.42H110.59v.88A102,102,0,0,1,100.5,210.41Z"/><path class="cls-4" d="M100.87,210.62c-23.76-42.72-12.8-94.16,24.49-114.9,18.65-10.37,40.34-11.1,60.34-3.9a87,87,0,0,1,14.61,6.87q3.54,2.07,6.93,4.49h-6.33V224.42h-90v1A101.72,101.72,0,0,1,100.87,210.62Z"/><path class="cls-4" d="M101.23,210.83c-23.66-42.54-12.74-93.76,24.39-114.41,18.56-10.32,40.16-11,60.08-3.88a87.4,87.4,0,0,1,14.55,6.84c2.35,1.37,4.65,2.87,6.9,4.47h-6.24V224.42H111.23v1.17A100,100,0,0,1,101.23,210.83Z"/><path class="cls-4" d="M101.59,211C78,168.69,88.91,117.69,125.87,97.13c18.49-10.28,40-11,59.83-3.87a87.32,87.32,0,0,1,14.48,6.8c2.34,1.38,4.63,2.86,6.87,4.46h-6.14v119.9H111.54v1.32A101.26,101.26,0,0,1,101.59,211Z"/><path class="cls-4" d="M102,211.25C78.5,169.08,89.32,118.3,126.13,97.83c18.4-10.24,39.82-11,59.56-3.85a87.49,87.49,0,0,1,14.43,6.77c2.32,1.37,4.61,2.85,6.84,4.44h-6.05V224.42h-89v1.46A100.34,100.34,0,0,1,102,211.25Z"/><path class="cls-4" d="M102.31,211.45c-23.35-42-12.57-92.54,24.08-112.92,18.32-10.19,39.64-10.91,59.3-3.83a86.28,86.28,0,0,1,14.36,6.74c2.32,1.36,4.59,2.84,6.81,4.42h-6V224.42H112.18V226A99.63,99.63,0,0,1,102.31,211.45Z"/><path class="cls-4" d="M102.67,211.66c-23.24-41.8-12.51-92.13,24-112.43,18.25-10.14,39.47-10.86,59.05-3.81A85.83,85.83,0,0,1,200,102.13q3.47,2,6.78,4.4h-5.85V224.42H112.5v1.75A99.5,99.5,0,0,1,102.67,211.66Z"/><path class="cls-4" d="M103,211.87C79.89,170.26,90.57,120.14,126.9,99.94c18.16-10.11,39.3-10.82,58.78-3.8a85.2,85.2,0,0,1,14.24,6.68q3.45,2,6.75,4.39h-5.76V224.42H112.82v1.9A98.38,98.38,0,0,1,103,211.87Z"/><path class="cls-4" d="M103.4,212.08C80.35,170.65,91,120.75,127.16,100.64c18.08-10.06,39.12-10.77,58.52-3.78a85.17,85.17,0,0,1,14.17,6.65c2.29,1.35,4.53,2.8,6.72,4.37h-5.66V224.42H113.14v2A98.25,98.25,0,0,1,103.4,212.08Z"/><path class="cls-4" d="M103.76,212.29C80.82,171,91.41,121.37,127.41,101.34c18-10,39-10.72,58.27-3.76a84.82,84.82,0,0,1,14.11,6.62c2.27,1.34,4.51,2.79,6.69,4.35h-5.57V224.42H113.45v2.19A98.18,98.18,0,0,1,103.76,212.29Z"/><path class="cls-4" d="M104.12,212.5C81.28,171.43,91.82,122,127.67,102c17.92-10,38.78-10.67,58-3.74a84.51,84.51,0,0,1,14.05,6.59c2.27,1.33,4.49,2.78,6.66,4.33h-5.47v115.2H113.77v2.33A97.8,97.8,0,0,1,104.12,212.5Z"/><path class="cls-4" d="M104.48,212.71c-22.74-40.88-12.24-90.12,23.44-110,17.85-9.93,38.61-10.63,57.75-3.73a83.69,83.69,0,0,1,14,6.56c2.26,1.33,4.47,2.76,6.64,4.31h-5.38V224.42H114.09v2.48A97,97,0,0,1,104.48,212.71Z"/><path class="cls-4" d="M104.84,212.92c-22.63-40.7-12.18-89.71,23.34-109.47,17.76-9.88,38.43-10.57,57.49-3.71a83.34,83.34,0,0,1,13.92,6.53q3.38,2,6.6,4.29h-5.28V224.42h-86.5V227A96.6,96.6,0,0,1,104.84,212.92Z"/><path class="cls-4" d="M105.2,213.13c-22.53-40.52-12.13-89.31,23.24-109,17.68-9.83,38.25-10.52,57.23-3.69a82.52,82.52,0,0,1,13.85,6.5q3.36,2,6.57,4.27h-5.18V224.42H114.73v2.77A96.58,96.58,0,0,1,105.2,213.13Z"/><path class="cls-4" d="M105.57,213.33C83.13,173,93.49,124.44,128.69,104.86c17.61-9.79,38.09-10.48,57-3.68a82.68,82.68,0,0,1,13.8,6.47c2.22,1.31,4.41,2.73,6.54,4.25h-5.09V224.42H115.05v2.91A94.4,94.4,0,0,1,105.57,213.33Z"/><path class="cls-4" d="M105.93,213.54c-22.33-40.14-12-88.49,23-108,17.52-9.75,37.91-10.43,56.71-3.66a82.65,82.65,0,0,1,13.73,6.44q3.33,1.95,6.51,4.23h-5V224.42H115.36v3.06A96.18,96.18,0,0,1,105.93,213.54Z"/><path class="cls-4" d="M106.29,213.75c-22.23-40-12-88.09,22.92-107.49,17.44-9.7,37.73-10.38,56.45-3.65A83.54,83.54,0,0,1,199.33,109q3.3,1.95,6.48,4.21h-4.9V224.42H115.68v3.2A94.72,94.72,0,0,1,106.29,213.75Z"/><path class="cls-4" d="M106.65,214c-22.12-39.78-11.91-87.68,22.81-107,17.36-9.65,37.57-10.33,56.19-3.63a82,82,0,0,1,13.61,6.39c2.19,1.29,4.35,2.69,6.45,4.19h-4.8V224.42H116v3.35A95.78,95.78,0,0,1,106.65,214Z"/><path class="cls-4" d="M107,214.17c-22-39.6-11.86-87.28,22.71-106.5,17.28-9.62,37.39-10.29,55.93-3.62a81.22,81.22,0,0,1,13.54,6.36q3.28,1.94,6.43,4.17h-4.71V224.42H116.32v3.49A93.52,93.52,0,0,1,107,214.17Z"/><path class="cls-4" d="M107.37,214.38C85.45,175,95.57,127.5,130,108.37c17.21-9.57,37.22-10.24,55.68-3.6a80.86,80.86,0,0,1,13.48,6.33c2.17,1.28,4.31,2.66,6.39,4.15h-4.61V224.42H116.64v3.64A93.24,93.24,0,0,1,107.37,214.38Z"/><path class="cls-4" d="M107.74,214.59C85.92,175.36,96,128.12,130.23,109.07c17.12-9.52,37-10.19,55.41-3.58a80.56,80.56,0,0,1,13.42,6.3q3.25,1.9,6.36,4.13h-4.51v108.5H117v3.78A92.28,92.28,0,0,1,107.74,214.59Z"/><path class="cls-4" d="M108.1,214.8c-21.72-39.05-11.7-86.07,22.39-105,17-9.47,36.87-10.14,55.15-3.56A81,81,0,0,1,199,112.48q3.23,1.9,6.33,4.11h-4.42V224.42H117.28v3.93A92,92,0,0,1,108.1,214.8Z"/><path class="cls-4" d="M108.46,215c-21.62-38.87-11.64-85.67,22.28-104.53,17-9.44,36.7-10.1,54.9-3.55a80.18,80.18,0,0,1,13.29,6.24c2.14,1.26,4.25,2.63,6.3,4.09h-4.32V224.42H117.59v4.07A92.61,92.61,0,0,1,108.46,215Z"/><path class="cls-4" d="M108.82,215.21C87.31,176.54,97.24,130,131,111.18c16.88-9.39,36.52-10.05,54.63-3.53a79.45,79.45,0,0,1,13.23,6.21c2.14,1.26,4.23,2.61,6.28,4.08h-4.23V224.42h-83v4.22A91.89,91.89,0,0,1,108.82,215.21Z"/><path class="cls-4" d="M109.18,215.42c-21.41-38.49-11.53-84.85,22.08-103.54,16.8-9.34,36.35-10,54.37-3.51a78.72,78.72,0,0,1,13.17,6.18c2.12,1.25,4.21,2.6,6.24,4.06h-4.13V224.42H118.23v4.36A91.23,91.23,0,0,1,109.18,215.42Z"/><path class="cls-4" d="M109.54,215.63c-21.31-38.31-11.47-84.45,22-103,16.72-9.29,36.18-10,54.12-3.49a78.27,78.27,0,0,1,13.1,6.15q3.18,1.86,6.22,4h-4V224.42H118.55v4.51A91.49,91.49,0,0,1,109.54,215.63Z"/><path class="cls-4" d="M109.9,215.84c-21.2-38.13-11.41-84,21.87-102.55,16.64-9.26,36-9.91,53.86-3.48a79.14,79.14,0,0,1,13,6.12q3.15,1.86,6.18,4h-3.94V224.42h-82v4.65A90,90,0,0,1,109.9,215.84Z"/><path class="cls-4" d="M110.27,216.05C89.16,178.1,98.9,132.41,132,114c16.56-9.21,35.83-9.86,53.6-3.46a78.41,78.41,0,0,1,13,6.09c2.09,1.23,4.15,2.56,6.15,4h-3.84v103.8H119.19v4.8A89.45,89.45,0,0,1,110.27,216.05Z"/><path class="cls-4" d="M110.63,216.26c-21-37.76-11.31-83.24,21.65-101.57,16.48-9.16,35.66-9.81,53.34-3.44a77.21,77.21,0,0,1,12.91,6.06c2.09,1.23,4.13,2.55,6.13,4h-3.75V224.42H119.5v4.94A89.27,89.27,0,0,1,110.63,216.26Z"/><path class="cls-4" d="M111,216.47c-20.9-37.58-11.25-82.83,21.55-101.07,16.4-9.13,35.48-9.77,53.08-3.43a77.23,77.23,0,0,1,12.85,6c2.07,1.22,4.11,2.54,6.09,4h-3.65V224.42H119.82v5.09A89.79,89.79,0,0,1,111,216.47Z"/><path class="cls-4" d="M111.35,216.68c-20.8-37.4-11.2-82.43,21.44-100.58,16.32-9.08,35.31-9.72,52.82-3.41a75.77,75.77,0,0,1,12.79,6c2.07,1.21,4.09,2.53,6.07,3.94h-3.56V224.42H120.14v5.23A88.87,88.87,0,0,1,111.35,216.68Z"/><path class="cls-4" d="M111.71,216.89c-20.69-37.22-11.14-82,21.34-100.09,16.24-9,35.14-9.67,52.56-3.39a75.41,75.41,0,0,1,12.73,6c2,1.21,4.07,2.51,6,3.92h-3.46V224.42H120.46v5.38A88.84,88.84,0,0,1,111.71,216.89Z"/><path class="cls-4" d="M112.07,217.09c-20.59-37-11.08-81.61,21.24-99.59,16.16-9,35-9.62,52.3-3.37a76.55,76.55,0,0,1,12.66,5.94c2,1.2,4,2.5,6,3.9h-3.37V224.42H120.78v5.52A88,88,0,0,1,112.07,217.09Z"/><path class="cls-4" d="M112.44,217.3c-20.5-36.84-11-81.21,21.12-99.09,16.08-8.95,34.79-9.58,52-3.36a75.53,75.53,0,0,1,12.61,5.91q3,1.8,6,3.88h-3.27v99.78H121.1v5.67A86.38,86.38,0,0,1,112.44,217.3Z"/><path class="cls-4" d="M112.8,217.51c-20.39-36.66-11-80.8,21-98.6,16-8.9,34.61-9.53,51.78-3.35a75.94,75.94,0,0,1,12.54,5.89c2,1.19,4,2.48,6,3.86h-3.18v99.11h-79.5v5.81A87.52,87.52,0,0,1,112.8,217.51Z"/><path class="cls-4" d="M113.16,217.72c-20.29-36.48-10.92-80.4,20.91-98.11,15.92-8.85,34.45-9.48,51.53-3.33a74.74,74.74,0,0,1,12.47,5.86q3,1.77,5.92,3.84h-3.08v98.44H121.73v6A85.91,85.91,0,0,1,113.16,217.72Z"/><path class="cls-4" d="M113.52,217.93c-20.19-36.29-10.87-80,20.81-97.62,15.84-8.8,34.27-9.43,51.26-3.31A74.48,74.48,0,0,1,198,122.83c2,1.18,4,2.45,5.88,3.82h-3v97.77H122.05v6.1A85.78,85.78,0,0,1,113.52,217.93Z"/><path class="cls-4" d="M113.88,218.14C93.8,182,103.07,138.55,134.59,121c15.76-8.77,34.09-9.38,51-3.3a74.08,74.08,0,0,1,12.35,5.8c2,1.17,3.95,2.44,5.86,3.8h-2.89v97.1H122.37v6.25A85.5,85.5,0,0,1,113.88,218.14Z"/><path class="cls-4" d="M114.24,218.35c-20-35.93-10.75-79.19,20.6-96.63,15.68-8.72,33.93-9.33,50.75-3.28a74.91,74.91,0,0,1,12.29,5.77q3,1.76,5.82,3.78h-2.79v96.43H122.69v6.39A85.38,85.38,0,0,1,114.24,218.35Z"/><path class="cls-4" d="M114.6,218.56c-19.87-35.75-10.7-78.79,20.5-96.14,15.6-8.67,33.75-9.28,50.49-3.26a74.08,74.08,0,0,1,12.22,5.74c2,1.16,3.91,2.42,5.8,3.77h-2.7v95.75H123V231A85.1,85.1,0,0,1,114.6,218.56Z"/><path class="cls-4" d="M115,218.76c-19.78-35.55-10.65-78.37,20.39-95.63,15.51-8.64,33.57-9.24,50.22-3.25a73,73,0,0,1,12.16,5.71q3,1.72,5.77,3.75h-2.6v95.08H123.32v6.69A84.28,84.28,0,0,1,115,218.76Z"/><path class="cls-4" d="M115.33,219c-19.68-35.37-10.6-78,20.28-95.14,15.44-8.59,33.4-9.19,50-3.23a72.61,72.61,0,0,1,12.1,5.68c1.95,1.15,3.87,2.39,5.74,3.73h-2.51v94.41H123.64v6.83A84.16,84.16,0,0,1,115.33,219Z"/><path class="cls-4" d="M115.69,219.18c-19.57-35.19-10.54-77.57,20.18-94.65,15.36-8.54,33.23-9.14,49.71-3.21a72.21,72.21,0,0,1,12,5.65c1.94,1.14,3.85,2.38,5.71,3.71h-2.41v93.74H124v7A83.88,83.88,0,0,1,115.69,219.18Z"/><path class="cls-4" d="M116.05,219.39c-19.47-35-10.48-77.16,20.07-94.16,15.28-8.49,33.06-9.09,49.45-3.19a72.76,72.76,0,0,1,12,5.62q2.89,1.71,5.67,3.69h-2.31v93.07h-81v1.29Q117.89,222.68,116.05,219.39Z"/><path class="cls-4" d="M116.41,219.6c-19.37-34.82-10.43-76.76,20-93.66,15.2-8.46,32.88-9,49.19-3.18a71.55,71.55,0,0,1,11.91,5.59c1.92,1.13,3.81,2.35,5.65,3.67h-2.22v92.4H120.28v1.47C118.91,223.87,117.62,221.78,116.41,219.6Z"/><path class="cls-4" d="M116.77,219.81c-19.26-34.64-10.37-76.35,19.87-93.17,15.12-8.41,32.71-9,48.93-3.16A71.1,71.1,0,0,1,197.41,129q2.88,1.68,5.62,3.65h-2.12v91.73H120.62v1.64C119.26,224.06,118,222,116.77,219.81Z"/><path class="cls-4" d="M117.14,220c-19.17-34.46-10.32-76,19.75-92.68,15-8.36,32.54-9,48.67-3.14a70.1,70.1,0,0,1,11.79,5.53c1.9,1.12,3.77,2.33,5.59,3.63h-2v91.06H121v1.82C119.61,224.25,118.33,222.17,117.14,220Z"/><path class="cls-4" d="M117.5,220.23C98.44,186,107.23,144.68,137.15,128c15-8.31,32.36-8.9,48.41-3.12a69.65,69.65,0,0,1,11.72,5.5c1.89,1.11,3.75,2.32,5.56,3.61h-1.93v90.39h-79.6v2Q119.29,223.44,117.5,220.23Z"/><path class="cls-4" d="M117.86,220.44c-19-34.09-10.21-75.14,19.55-91.69,14.87-8.28,32.19-8.86,48.15-3.11a70.09,70.09,0,0,1,11.66,5.47c1.88,1.11,3.72,2.3,5.53,3.59h-1.84v89.72H121.65v2.17C120.31,224.62,119,222.57,117.86,220.44Z"/><path class="cls-4" d="M118.22,220.64c-18.86-33.9-10.15-74.73,19.44-91.19,14.8-8.23,32-8.81,47.89-3.09a71.67,71.67,0,0,1,22.34,13.12h-7v84.94H122v2.35C120.66,224.81,119.4,222.76,118.22,220.64Z"/><path class="cls-4" d="M118.58,220.85c-18.75-33.72-10.1-74.33,19.34-90.7,14.72-8.18,31.84-8.76,47.63-3.07a71.3,71.3,0,0,1,22.22,13h-6.86v84.29H122.33v2.52Q120.34,224,118.58,220.85Z"/><path class="cls-4" d="M118.94,221.06c-18.65-33.54-10-73.92,19.23-90.21,14.64-8.14,31.67-8.71,47.38-3a70.79,70.79,0,0,1,22.09,13h-6.73v83.64H122.67v2.7Q120.69,224.21,118.94,221.06Z"/><path class="cls-4" d="M119.3,221.27c-18.55-33.35-10-73.52,19.13-89.71,14.56-8.1,31.5-8.67,47.11-3.05a70.8,70.8,0,0,1,22,12.92h-6.61v83H123v2.87C121.7,225.36,120.46,223.36,119.3,221.27Z"/><path class="cls-4" d="M119.67,221.48c-18.45-33.17-9.94-73.12,19-89.22,14.47-8,31.32-8.62,46.85-3a70.23,70.23,0,0,1,21.86,12.85h-6.49v82.34H123.35v3.05Q121.4,224.59,119.67,221.48Z"/><path class="cls-4" d="M120,221.69c-18.35-33-9.88-72.71,18.91-88.73,14.4-8,31.15-8.57,46.6-3a69.89,69.89,0,0,1,21.73,12.77h-6.36v81.7H123.69v3.23C122.4,225.74,121.17,223.75,120,221.69Z"/><path class="cls-4" d="M120.39,221.9c-18.25-32.81-9.82-72.31,18.81-88.23,14.32-8,31-8.53,46.34-3a69.63,69.63,0,0,1,21.61,12.7h-6.24v81H124v3.4C122.75,225.92,121.53,224,120.39,221.9Z"/><path class="cls-4" d="M120.75,222.11c-18.14-32.62-9.77-71.91,18.71-87.74,14.23-7.92,30.8-8.48,46.07-3A69.06,69.06,0,0,1,207,144h-6.11v80.4H124.38V228C123.1,226.11,121.88,224.15,120.75,222.11Z"/><path class="cls-4" d="M121.11,222.32c-18-32.44-9.71-71.5,18.6-87.25,14.16-7.87,30.63-8.43,45.82-3a68.8,68.8,0,0,1,21.37,12.56h-6v79.75H124.72v3.75C123.44,226.3,122.24,224.34,121.11,222.32Z"/><path class="cls-4" d="M121.47,222.52c-17.93-32.25-9.65-71.09,18.5-86.75,14.07-7.83,30.45-8.38,45.56-2.94a68.19,68.19,0,0,1,21.24,12.49h-5.86v79.1H125.06v3.93Q123.16,225.55,121.47,222.52Z"/><path class="cls-4" d="M121.84,222.73c-17.84-32.07-9.61-70.68,18.38-86.25,14-7.79,30.29-8.34,45.3-2.93A67.78,67.78,0,0,1,206.65,146h-5.74v78.45H125.4v4.1Q123.51,225.74,121.84,222.73Z"/><path class="cls-4" d="M122.2,222.94c-17.74-31.88-9.55-70.28,18.28-85.76,13.92-7.74,30.11-8.29,45-2.91a67.51,67.51,0,0,1,21,12.35h-5.62v77.8H125.74v4.28Q123.87,225.93,122.2,222.94Z"/><path class="cls-4" d="M122.56,223.15c-17.63-31.7-9.49-69.88,18.18-85.27,13.83-7.69,29.93-8.24,44.78-2.89a67.06,67.06,0,0,1,20.88,12.27h-5.49v77.16H126.08v4.46C124.84,227,123.66,225.13,122.56,223.15Z"/><path class="cls-4" d="M122.92,223.36c-17.53-31.52-9.44-69.47,18.07-84.78,13.76-7.65,29.77-8.18,44.52-2.87a66.84,66.84,0,0,1,20.77,12.2h-5.37v76.51H126.42v4.63Q124.57,226.32,122.92,223.36Z"/><path class="cls-4" d="M123.28,223.57c-17.43-31.34-9.38-69.07,18-84.28,13.68-7.61,29.59-8.14,44.26-2.86a66.23,66.23,0,0,1,20.64,12.13h-5.24v75.86H126.76v4.81C125.53,227.41,124.37,225.53,123.28,223.57Z"/><path class="cls-4" d="M123.64,223.78c-17.32-31.15-9.33-68.67,17.87-83.79,13.59-7.56,29.41-8.09,44-2.84A65.77,65.77,0,0,1,206,149.21h-5.12v75.21H127.1v5C125.88,227.6,124.73,225.72,123.64,223.78Z"/><path class="cls-4" d="M124,224c-17.22-31-9.27-68.26,17.76-83.3,13.52-7.51,29.24-8,43.74-2.82a65.56,65.56,0,0,1,20.41,12h-5v74.56H127.45v5.16C126.23,227.79,125.08,225.92,124,224Z"/><path class="cls-4" d="M124.37,224.19c-17.13-30.78-9.22-67.85,17.65-82.79,13.43-7.48,29.07-8,43.48-2.81a64.94,64.94,0,0,1,20.28,11.92h-4.87v73.91H127.79v5.33Q126,227.08,124.37,224.19Z"/><path class="cls-4" d="M124.73,224.4c-17-30.6-9.17-67.45,17.54-82.3,13.36-7.43,28.9-7.95,43.23-2.79a65,65,0,0,1,20.16,11.84h-4.75v73.27H128.13v5.51C126.93,228.16,125.79,226.32,124.73,224.4Z"/><path class="cls-4" d="M125.09,224.61c-16.92-30.41-9.11-67,17.44-81.81,13.28-7.38,28.72-7.9,43-2.77a64.23,64.23,0,0,1,20,11.77h-4.62v72.62H125.09Z"/><path class="cls-4" d="M125.45,224.82c-16.81-30.23-9-66.64,17.34-81.32,13.19-7.34,28.55-7.85,42.7-2.75a63.82,63.82,0,0,1,19.92,11.7h-4.5v72H125.45Z"/><path class="cls-4" d="M125.81,225c-16.71-30.05-9-66.24,17.23-80.82,13.12-7.3,28.38-7.81,42.45-2.75a63.89,63.89,0,0,1,19.8,11.64h-4.38v71.32h-75.1Z"/><path class="cls-4" d="M126.17,225.24c-16.61-29.87-8.94-65.83,17.13-80.33,13-7.25,28.2-7.76,42.19-2.73a63.17,63.17,0,0,1,19.67,11.57h-4.25v70.67H126.17Z"/><path class="cls-4" d="M126.54,225.45c-16.51-29.68-8.89-65.43,17-79.84,12.95-7.2,28-7.71,41.92-2.71A63,63,0,0,1,205,154.4h-4.13v70H126.54Z"/><path class="cls-4" d="M126.9,225.66c-16.41-29.5-8.84-65,16.91-79.35,12.88-7.16,27.86-7.66,41.67-2.69A62.5,62.5,0,0,1,204.91,155h-4v69.38h-74Z"/><path class="cls-4" d="M127.26,225.87C111,196.55,118.48,161.25,144.07,147c12.79-7.12,27.68-7.62,41.41-2.68a62.15,62.15,0,0,1,19.31,11.35h-3.88v68.73H127.26Z"/><path class="cls-4" d="M127.62,226.07c-16.2-29.13-8.72-64.21,16.7-78.35,12.72-7.07,27.51-7.57,41.15-2.66a61.82,61.82,0,0,1,19.2,11.28h-3.76v68.08H127.62Z"/><path class="cls-4" d="M128,226.28c-16.1-28.94-8.67-63.8,16.6-77.86,12.63-7,27.34-7.52,40.89-2.64A61.21,61.21,0,0,1,204.54,157h-3.63v67.43H128Z"/><path class="cls-4" d="M128.34,226.49c-16-28.76-8.61-63.4,16.5-77.36,12.55-7,27.16-7.48,40.63-2.63a61.06,61.06,0,0,1,18.95,11.14h-3.51v66.78H128.34Z"/><path class="cls-4" d="M128.7,226.7c-15.89-28.58-8.55-63,16.39-76.87,12.48-6.94,27-7.43,40.37-2.61a60.38,60.38,0,0,1,18.83,11.07h-3.38v66.13H128.7Z"/><path class="cls-4" d="M129.07,226.91c-15.8-28.4-8.51-62.59,16.28-76.38,12.39-6.89,26.81-7.38,40.11-2.59a60.08,60.08,0,0,1,18.71,11h-3.26v65.49H129.07Z"/><path class="cls-4" d="M129.43,227.12c-15.69-28.21-8.45-62.19,16.18-75.89,12.31-6.85,26.64-7.33,39.85-2.57a59.94,59.94,0,0,1,18.59,10.92h-3.14v64.84H129.43Z"/><path class="cls-4" d="M129.79,227.33c-15.59-28-8.39-61.79,16.07-75.39,12.24-6.81,26.47-7.29,39.59-2.56a59.25,59.25,0,0,1,18.47,10.85h-3v64.19H129.79Z"/><path class="cls-4" d="M130.15,227.54c-15.49-27.85-8.34-61.38,16-74.9,12.15-6.76,26.29-7.24,39.33-2.54a59,59,0,0,1,18.35,10.78h-2.89v63.54H130.15Z"/><path class="cls-4" d="M130.51,227.75c-15.38-27.67-8.28-61,15.86-74.41,12.08-6.71,26.13-7.19,39.08-2.52a58.38,58.38,0,0,1,18.22,10.71h-2.76v62.89h-70.4Z"/><path class="cls-4" d="M130.87,228c-15.28-27.48-8.22-60.57,15.76-73.91,12-6.67,26-7.14,38.82-2.5a58,58,0,0,1,18.1,10.64h-2.64v62.24h-70Z"/><path class="cls-4" d="M131.24,228.16c-15.19-27.29-8.18-60.16,15.65-73.41,11.91-6.63,25.77-7.1,38.55-2.49a58,58,0,0,1,18,10.56h-2.52v61.6H131.24Z"/><path class="cls-4" d="M131.6,228.37c-15.08-27.11-8.12-59.76,15.54-72.92,11.84-6.58,25.6-7,38.3-2.47a57.25,57.25,0,0,1,17.86,10.49h-2.39v60.95H131.6Z"/><path class="cls-4" d="M132,228.58c-15-26.93-8.07-59.36,15.44-72.43,11.75-6.53,25.43-7,38-2.45a57.1,57.1,0,0,1,17.74,10.42h-2.27v60.3H132Z"/><path class="cls-4" d="M132.32,228.79c-14.88-26.75-8-58.95,15.34-71.94,11.67-6.49,25.25-6.94,37.77-2.44a56.76,56.76,0,0,1,17.62,10.36h-2.14v59.65H132.32Z"/><path class="cls-4" d="M132.68,229c-14.77-26.56-8-58.55,15.23-71.44,11.59-6.45,25.08-6.9,37.52-2.43a56.3,56.3,0,0,1,17.5,10.29h-2v59H132.68Z"/><path class="cls-4" d="M133,229.21c-14.67-26.38-7.9-58.14,15.13-71,11.51-6.4,24.91-6.85,37.26-2.41a55.88,55.88,0,0,1,17.37,10.22h-1.89v58.35H133Z"/><path class="cls-4" d="M133.4,229.42c-14.56-26.2-7.84-57.74,15-70.46,11.44-6.36,24.74-6.8,37-2.39a55.52,55.52,0,0,1,17.26,10.14h-1.77v57.71H133.4Z"/><path class="cls-4" d="M133.77,229.62c-14.47-26-7.79-57.33,14.91-70,11.35-6.32,24.56-6.76,36.74-2.38a55.37,55.37,0,0,1,17.14,10.07h-1.65v57.06H133.77Z"/><path class="cls-4" d="M134.13,229.83c-14.37-25.82-7.74-56.92,14.81-69.46,11.27-6.27,24.38-6.71,36.48-2.36a54.76,54.76,0,0,1,17,10h-1.52v56.41H134.13Z"/><path class="cls-4" d="M134.49,230c-14.26-25.64-7.68-56.52,14.7-69,11.19-6.22,24.22-6.66,36.22-2.34a54.23,54.23,0,0,1,16.9,9.93h-1.4v55.76H134.49Z"/><path class="cls-4" d="M134.85,230.25c-14.16-25.46-7.62-56.12,14.6-68.48,11.11-6.18,24-6.61,36-2.32a53.73,53.73,0,0,1,16.77,9.86h-1.27v55.11H134.85Z"/><path class="cls-4" d="M135.21,230.46c-14.06-25.28-7.57-55.71,14.5-68,11-6.14,23.86-6.57,35.7-2.31A53.28,53.28,0,0,1,202.06,170h-1.15v54.46h-65.7Z"/><path class="cls-4" d="M135.57,230.67c-13.95-25.09-7.51-55.31,14.39-67.49,10.95-6.09,23.7-6.52,35.45-2.29a53,53,0,0,1,16.53,9.71h-1v53.82H135.57Z"/><path class="cls-4" d="M135.94,230.88c-13.86-24.91-7.46-54.91,14.28-67,10.87-6,23.52-6.47,35.18-2.27a52.61,52.61,0,0,1,16.41,9.64h-.9v53.17h-65Z"/><path class="cls-4" d="M136.3,231.09c-13.75-24.73-7.41-54.5,14.17-66.51,10.8-6,23.35-6.42,34.93-2.25a52.15,52.15,0,0,1,16.29,9.57h-.78v52.52H136.3Z"/><path class="cls-4" d="M136.66,231.3c-13.65-24.55-7.35-54.1,14.07-66,10.71-6,23.17-6.38,34.67-2.24a51.84,51.84,0,0,1,16.16,9.5h-.65v51.87H136.66Z"/><path class="cls-4" d="M137,224.42h-2.31v2.46q-1-2.32-1.85-4.7a54.82,54.82,0,0,1-2.36-9.53,51.47,51.47,0,0,1,.45-18.6c2.53-11.86,9.41-22.15,20-28.06s23-6.33,34.4-2.22a51.21,51.21,0,0,1,16.05,9.43h-.53v51.22Z"/><path class="cls-4" d="M137.38,224.42h-2.29v2.71c-.69-1.55-1.3-3.1-1.84-4.67a55.74,55.74,0,0,1-2.34-9.45,51,51,0,0,1,.45-18.47c2.51-11.77,9.33-22,19.88-27.85s22.83-6.28,34.15-2.2a50.86,50.86,0,0,1,15.93,9.36h-.41v50.57Z"/><path class="cls-4" d="M137.74,224.42h-2.27v3c-.68-1.53-1.29-3.08-1.83-4.63a54.91,54.91,0,0,1-2.32-9.38,50.89,50.89,0,0,1,.44-18.33c2.49-11.68,9.27-21.81,19.74-27.63s22.65-6.24,33.89-2.19a50.72,50.72,0,0,1,15.8,9.28h-.28v49.93Z"/><path class="cls-4" d="M138.1,224.42h-2.25v3.2c-.68-1.52-1.28-3.06-1.81-4.6a54.12,54.12,0,0,1-2.31-9.31,50.34,50.34,0,0,1,.44-18.19c2.47-11.59,9.2-21.64,19.59-27.42s22.48-6.19,33.62-2.17a50.08,50.08,0,0,1,15.69,9.21h-.16v49.28Z"/></g><path class="cls-2" d="M64.91,45c1.07-1.37,9.62-11.92,24-12a31,31,0,0,1,27,16c-6.85-22.73-22.72-38.69-40-40-21.63-1.65-37.15,14.75-43,28-3.92,8.86-6.6,23.35-1,27S50.51,60,64.91,45Z"/><g class="cls-5"><rect class="cls-6" x="7.98" y="7.94" width="108.93" height="125.08"/><polygon class="cls-6" points="117.91 103.73 117.91 134.03 6.98 134.03 6.98 6.94 117.91 6.94 117.91 103.73"/><polygon class="cls-6" points="117.91 103.25 117.91 134.03 6.98 134.03 6.98 6.94 117.91 6.94 117.91 103.25"/><polygon class="cls-6" points="117.91 102.77 117.91 134.03 6.98 134.03 6.98 6.94 117.91 6.94 117.91 102.77"/><polygon class="cls-6" points="117.91 102.3 117.91 134.03 6.98 134.03 6.98 6.94 117.91 6.94 117.91 102.3"/><polygon class="cls-6" points="117.91 101.82 117.91 134.03 6.98 134.03 6.98 6.94 117.91 6.94 117.91 101.82"/><polygon class="cls-6" points="117.91 101.34 117.91 134.03 6.98 134.03 6.98 6.94 117.91 6.94 117.91 101.34"/><polygon class="cls-6" points="117.91 100.86 117.91 134.03 6.98 134.03 6.98 6.94 117.91 6.94 117.91 100.86"/><polygon class="cls-6" points="117.91 100.39 117.91 134.03 6.98 134.03 6.98 6.94 117.91 6.94 117.91 100.39"/><path class="cls-6" d="M117.91,99.91V134H9v2.79A95.54,95.54,0,0,1,.54,130H7V6.94H117.91Z"/><path class="cls-6" d="M117.91,99.43V134H9.6v2.18a92,92,0,0,1-8.42-6.81H7V6.94H117.91Z"/><path class="cls-6" d="M117.91,99V134H10.2v1.57a92.76,92.76,0,0,1-8.39-6.79H7V6.94H117.91Z"/><path class="cls-6" d="M117.91,98.48V134H10.8v1a93.45,93.45,0,0,1-8.36-6.76H7V6.94H117.91Z"/><path class="cls-6" d="M117.91,98v36H11.41v.35a88.46,88.46,0,0,1-8.33-6.74H7V6.94H117.91Z"/><path class="cls-6" d="M117.91,97.53V134H21v5.46A93.13,93.13,0,0,1,3.71,127.06H7V6.94H117.91Z"/><path class="cls-6" d="M117.91,97.05v37H21.6v4.83A92.5,92.5,0,0,1,4.34,126.47H7V6.94H117.91Z"/><path class="cls-6" d="M117.91,96.57V134H22.17v4.19a88.42,88.42,0,0,1-9-5.67A89.4,89.4,0,0,1,5,125.89H7V6.94H117.91Z"/><path class="cls-6" d="M117.91,96.09V134H22.74v3.56A90.32,90.32,0,0,1,5.61,125.3H7V6.94H117.91Z"/><path class="cls-6" d="M117.91,95.62V134h5.79c-3.23,1.78-6.52,3.41-9.84,4.88V134H23.31V137a90.74,90.74,0,0,1-8.89-5.62,92.68,92.68,0,0,1-8.18-6.62H7V6.94H117.91Z"/><path class="cls-6" d="M117.91,95.14v38.2h6q-4.81,2.67-9.8,4.86V134H33.17v6.78A90.14,90.14,0,0,1,15,130.73a88.91,88.91,0,0,1-8.15-6.6H7V6.94H117.91Z"/><path class="cls-6" d="M117.91,94.66v38.06h6.18q-4.8,2.66-9.76,4.85V134H33.7v6.14a90.13,90.13,0,0,1-33.38-24H7V6.94H117.91Z"/><path class="cls-6" d="M117.91,94.19V132.1h6.38q-4.79,2.66-9.73,4.83V134H34.24v5.49A89.64,89.64,0,0,1,1,115.65H7V6.94H117.91Z"/><path class="cls-6" d="M117.91,93.71v37.77h6.58c-3.18,1.76-6.42,3.37-9.69,4.81V134h-80v4.84A89.48,89.48,0,0,1,1.64,115.1H7V6.94H117.91Z"/><path class="cls-6" d="M117.91,93.23v37.63h6.78q-4.75,2.64-9.66,4.79V134H35.31v4.2a89.23,89.23,0,0,1-33-23.69H7V6.94H117.91Z"/><path class="cls-6" d="M117.91,92.76v37.48h7q-4.74,2.63-9.62,4.78v-1H35.85v3.55A88.73,88.73,0,0,1,3,114H7V6.94H117.91Z"/><path class="cls-6" d="M117.91,92.28v39.84h2.42q-2.4,1.19-4.83,2.26V134H36.38v2.9A88.52,88.52,0,0,1,3.62,113.42H7V6.94H117.91Z"/><path class="cls-6" d="M117.91,91.8v39.69h2.63q-2.39,1.19-4.8,2.25A112.9,112.9,0,0,1,96,140.38V134H36.92v2.26A88.32,88.32,0,0,1,4.28,112.87H7V6.94H117.91Z"/><path class="cls-6" d="M117.91,91.32v39.54h2.85Q118.39,132,116,133.1a111.7,111.7,0,0,1-19.66,6.61V134H37.45v1.61A87.89,87.89,0,0,1,4.94,112.31H7V6.94H117.91Z"/><path class="cls-6" d="M117.91,90.85v39.38H121c-1.58.79-3.17,1.53-4.77,2.24a113.1,113.1,0,0,1-19.59,6.58v-5H56.92v6.42a87.89,87.89,0,0,1-36.46-15.21A87.08,87.08,0,0,1,5.6,111.75H7V6.94H117.91Z"/><path class="cls-6" d="M117.91,90.37V129.6h3.28c-1.57.78-3.15,1.53-4.75,2.23a111.92,111.92,0,0,1-19.51,6.56V134H57.39v5.75a87.53,87.53,0,0,1-36.33-15.15,86.78,86.78,0,0,1-14.8-13.44H7V6.94H117.91Z"/><path class="cls-6" d="M117.91,89.89V129h3.5q-2.35,1.16-4.73,2.21a111.42,111.42,0,0,1-19.44,6.54V134H57.85v5.08A87,87,0,0,1,6.92,110.64H7V6.94H117.91Z"/><path class="cls-6" d="M117.91,89.42v38.93h3.72c-1.56.77-3.14,1.51-4.72,2.21a111,111,0,0,1-19.36,6.5v-3H58.31v4.42a86.93,86.93,0,0,1-36-15,86.48,86.48,0,0,1-20.69-21H7V6.94H117.91Z"/><path class="cls-6" d="M117.91,88.94v38.78h3.93c-1.55.77-3.12,1.5-4.69,2.2a110.5,110.5,0,0,1-19.29,6.48V134H58.77v3.75a86.58,86.58,0,0,1-35.9-15A85.9,85.9,0,0,1,8.25,109.52a84.46,84.46,0,0,1-6-7.67H7V6.94H117.91Z"/><path class="cls-6" d="M117.91,88.46v38.63h4.15q-2.32,1.16-4.68,2.19a110.16,110.16,0,0,1-19.21,6.46V134H59.24v3.08a86.22,86.22,0,0,1-35.77-14.92A84.81,84.81,0,0,1,8.91,109a85.65,85.65,0,0,1-6-7.64H7V6.94H117.91Z"/><path class="cls-6" d="M117.91,88v38.48h4.37c-1.55.77-3.1,1.49-4.66,2.18a109.62,109.62,0,0,1-19.14,6.43v-1H59.7v2.41a85.77,85.77,0,0,1-35.62-14.86A84.93,84.93,0,0,1,9.57,108.41a86.6,86.6,0,0,1-5.94-7.62H7V6.94H117.91Z"/><path class="cls-6" d="M117.91,87.51v38.32h4.58q-2.3,1.14-4.64,2.18a108.41,108.41,0,0,1-19.06,6.4C73,140.47,46.27,136.47,24.68,121a84.67,84.67,0,0,1-14.45-13.12,85.85,85.85,0,0,1-5.91-7.59H7V6.94H117.91Z"/><path class="cls-6" d="M117.91,87v40.34h.17a108.36,108.36,0,0,1-19,6.38c-25.68,6-52.31,2.05-73.82-13.38A85.3,85.3,0,0,1,0,91.6H7V6.94H117.91Z"/><path class="cls-6" d="M117.91,86.55v40.18h.41a108.68,108.68,0,0,1-18.91,6.36c-25.58,6-52.11,2-73.52-13.33A85.05,85.05,0,0,1,.7,91.11H7V6.94H117.91Z"/><path class="cls-6" d="M117.91,86.08v40h.64a106.66,106.66,0,0,1-18.83,6.33c-25.47,6-51.9,2-73.23-13.27A84.57,84.57,0,0,1,1.41,90.61H7V6.94H117.91Z"/><path class="cls-6" d="M117.91,85.6v39.86h.88a107.76,107.76,0,0,1-18.76,6.3c-25.37,6-51.69,2-72.94-13.22a84.4,84.4,0,0,1-25-28.42H7V6.94H117.91Z"/><path class="cls-6" d="M117.91,85.12v39.7H119a107.43,107.43,0,0,1-18.68,6.28c-25.27,5.94-51.48,2-72.65-13.17A84.05,84.05,0,0,1,2.81,89.62H7V6.94H117.91Z"/><path class="cls-6" d="M117.91,84.65v39.53h1.35a106.09,106.09,0,0,1-18.61,6.26c-25.17,5.91-51.27,2-72.35-13.12A83.57,83.57,0,0,1,3.52,89.13H7V6.94H117.91Z"/><path class="cls-6" d="M117.91,83.69v39.22h1.82a106,106,0,0,1-18.46,6.2c-25,5.87-50.86,2-71.77-13a82.74,82.74,0,0,1-24.57-28H7V6.94H117.91Z"/><path class="cls-6" d="M117.91,83.21v39.06h2a105.12,105.12,0,0,1-18.38,6.18c-24.86,5.84-50.65,2-71.47-13A82.49,82.49,0,0,1,5.63,87.64H7V6.94H117.91Z"/><path class="cls-6" d="M117.91,82.74v38.89h2.29a105.45,105.45,0,0,1-18.31,6.16c-24.76,5.81-50.44,2-71.18-12.91A82.15,82.15,0,0,1,6.33,87.14H7V6.94H117.91Z"/><path class="cls-6" d="M117.91,82.26V121h2.52a104.19,104.19,0,0,1-18.23,6.12c-24.66,5.8-50.23,2-70.89-12.85A81.83,81.83,0,0,1,7,86.65a88.81,88.81,0,0,1-7-17H7V6.94H117.91Z"/><path class="cls-6" d="M117.91,81.78v38.58h2.76a103.69,103.69,0,0,1-18.16,6.1c-24.56,5.77-50,2-70.59-12.8A81.43,81.43,0,0,1,7.74,86.15a88.59,88.59,0,0,1-7-16.94H7V6.94H117.91Z"/><path class="cls-6" d="M117.91,81.31v38.41h3a103.36,103.36,0,0,1-18.08,6.08c-24.45,5.74-49.82,2-70.3-12.75A81.14,81.14,0,0,1,8.44,85.66a88,88,0,0,1-7-16.88H7V6.94H117.91Z"/><path class="cls-6" d="M117.91,80.83v38.25h3.23a103.69,103.69,0,0,1-18,6.06c-24.35,5.72-49.61,1.94-70-12.7a80.77,80.77,0,0,1-24-27.28A88.07,88.07,0,0,1,2.2,68.36H7V6.94H117.91Z"/><path class="cls-6" d="M117.91,80.35v38.1h3.46a102.71,102.71,0,0,1-17.93,6c-24.25,5.7-49.4,1.94-69.71-12.64A80.32,80.32,0,0,1,9.85,84.67,87.6,87.6,0,0,1,2.93,67.94H7v-61H117.91Z"/><path class="cls-6" d="M117.91,79.87v37.94h3.7a102.76,102.76,0,0,1-17.86,6c-24.15,5.67-49.19,1.93-69.42-12.59S2.54,74.18.18,49.49H7V6.94H117.91Z"/><path class="cls-6" d="M117.91,79.4v37.77h3.93a101,101,0,0,1-17.78,6c-24,5.65-49,1.91-69.13-12.54S3.28,73.73.93,49.14H7V11.37H4.36Q5.67,6.63,7.41,1.93v5h110.5Z"/><path class="cls-6" d="M117.91,78.92v37.62h4.17a101,101,0,0,1-17.71,5.94c-23.94,5.63-48.78,1.91-68.83-12.48S4,73.27,1.68,48.79H7V11.18H5.09q1.3-4.73,3-9.4V6.94H117.91Z"/><path class="cls-6" d="M117.91,78.44V115.9h4.4a101,101,0,0,1-17.63,5.92c-23.84,5.6-48.57,1.9-68.54-12.43S4.75,72.82,2.42,48.44H7V11H5.82c.87-3.13,1.87-6.26,3-9.36V6.94H117.91Z"/><path class="cls-6" d="M117.91,78v37.29h4.63a99.79,99.79,0,0,1-17.55,5.9c-23.74,5.58-48.36,1.89-68.25-12.37S5.49,72.37,3.17,48.09H7V10.8H6.55q1.29-4.68,3-9.32V6.94H117.91Z"/><path class="cls-6" d="M117.91,77.49v37.13h4.87a100.12,100.12,0,0,1-17.48,5.88c-23.64,5.55-48.16,1.88-67.95-12.32S6.23,71.92,3.92,47.74A102.89,102.89,0,0,1,7.29,10.61q1.28-4.66,3-9.27v5.6H117.91Z"/><path class="cls-6" d="M117.91,77v37H123a98.87,98.87,0,0,1-17.4,5.84c-23.53,5.53-47.95,1.88-67.66-12.26S7,71.46,4.67,47.39A102.67,102.67,0,0,1,8,10.42q1.27-4.63,3-9.23V6.94h106.9Z"/><path class="cls-6" d="M117.91,76.53v36.82h5.34a98.37,98.37,0,0,1-17.33,5.82C82.49,124.68,58.18,121,38.55,107S7.7,71,5.41,47.05A102.43,102.43,0,0,1,8.75,10.24Q10,5.61,11.73,1v5.9H117.91Z"/><path class="cls-6" d="M117.91,76.06v36.65h5.57a98,98,0,0,1-17.25,5.8C82.9,124,58.7,120.37,39.16,106.35S8.44,70.56,6.16,46.7A101.79,101.79,0,0,1,9.49,10.05q1.26-4.61,3-9.16V6.94H117.91Z"/><path class="cls-6" d="M117.91,75.58v36.49h5.81a98.64,98.64,0,0,1-17.18,5.78c-23.23,5.45-47.32,1.85-66.78-12.11S9.18,70.1,6.91,46.35A101.33,101.33,0,0,1,10.22,9.86Q11.48,5.27,13.17.74v6.2H117.91Z"/><path class="cls-6" d="M117.91,75.1v36.34h6a97.39,97.39,0,0,1-17.1,5.74c-23.13,5.44-47.12,1.85-66.49-12.05S9.91,69.65,7.66,46A100.89,100.89,0,0,1,11,9.67Q12.21,5.11,13.89.59V6.94h104Z"/><path class="cls-6" d="M117.91,74.63V110.8h6.28a97.71,97.71,0,0,1-17,5.72c-23,5.41-46.91,1.84-66.19-12S10.65,69.2,8.4,45.65A100.49,100.49,0,0,1,11.69,9.48q1.24-4.54,2.92-9V6.94h103.3Z"/><path class="cls-6" d="M117.91,74.15v36h6.51a96.83,96.83,0,0,1-17,5.7c-22.92,5.38-46.7,1.83-65.9-12S11.39,68.74,9.15,45.3a100,100,0,0,1,3.27-36q1.24-4.51,2.91-9V6.94H117.91Z"/><path class="cls-6" d="M117.91,73.67v35.86h6.75a96.83,96.83,0,0,1-16.88,5.67C85,120.56,61.29,117,42.17,103.3S12.13,68.29,9.9,45A99.59,99.59,0,0,1,13.15,9.1c.83-3,1.79-6,2.9-8.95V6.94H117.91Z"/><path class="cls-6" d="M117.91,73.2v35.69h7a95.91,95.91,0,0,1-16.8,5.64c-22.72,5.34-46.28,1.81-65.31-11.84S12.86,67.84,10.65,44.6A98.88,98.88,0,0,1,13.89,8.92c.82-3,1.78-6,2.88-8.92V6.94H117.91Z"/><path class="cls-6" d="M117.91,72.72V110H121c-1.38.54-2.77,1-4.16,1.51-2.79.93-5.61,1.74-8.44,2.4-22.62,5.31-46.08,1.8-65-11.79s-29.78-34.69-32-57.82A98.71,98.71,0,0,1,14.62,8.73c.41-1.49.85-3,1.33-4.45V6.94h102Z"/><path class="cls-6" d="M117.91,72.24v37.07h3.35c-1.38.54-2.76,1-4.15,1.5q-4.17,1.41-8.4,2.4C86.2,118.5,62.84,115,44,101.47S14.34,66.93,12.14,43.91A98.27,98.27,0,0,1,15.35,8.54c.41-1.48.85-3,1.33-4.43V6.94H117.91Z"/><path class="cls-6" d="M117.91,71.76v36.91h3.6c-1.37.53-2.75,1-4.13,1.49-2.77.93-5.55,1.73-8.36,2.39-22.41,5.26-45.66,1.78-64.43-11.69s-29.51-34.38-31.7-57.3A97.84,97.84,0,0,1,16.08,8.35q.62-2.2,1.32-4.41v3H117.91Z"/><path class="cls-6" d="M117.91,71.29V108h3.85c-1.36.53-2.73,1-4.11,1.49-2.75.93-5.53,1.72-8.32,2.37-22.31,5.24-45.45,1.78-64.14-11.63S15.81,66,13.64,43.21a97.39,97.39,0,0,1,3.18-35c.4-1.47.84-2.93,1.31-4.39V6.94h99.78Z"/><path class="cls-6" d="M117.91,70.81v38.05h0q-4.11,1.38-8.28,2.36C87.43,116.44,64.4,113,45.79,99.64S16.55,65.57,14.38,42.86A97,97,0,0,1,17.55,8c.4-1.46.84-2.91,1.31-4.37V6.94h99.05Z"/><path class="cls-6" d="M117.91,70.33v37.88h.29c-2.73.91-5.48,1.7-8.25,2.35-22.1,5.19-45,1.76-63.55-11.53S17.29,65.12,15.13,42.51A96.54,96.54,0,0,1,18.28,7.78c.4-1.45.84-2.9,1.31-4.35V6.94h98.32Z"/><path class="cls-6" d="M117.91,69.86v37.7h.56c-2.72.91-5.45,1.69-8.21,2.33-22,5.17-44.83,1.76-63.26-11.47S18,64.67,15.88,42.16A95.81,95.81,0,0,1,19,7.6c.39-1.45.83-2.89,1.29-4.33V6.94h97.6Z"/><path class="cls-6" d="M117.91,69.38V106.9h.83c-2.7.91-5.43,1.69-8.17,2.33C88.67,114.38,66,111,47.6,97.81s-28.84-33.6-31-56A95.65,95.65,0,0,1,19.75,7.41C20.15,6,20.58,4.53,21,3.1V6.94h96.87Z"/><path class="cls-6" d="M117.91,68.9v37.35H119q-4,1.36-8.13,2.32c-21.8,5.12-44.41,1.74-62.67-11.36S19.5,63.76,17.37,41.47A95.2,95.2,0,0,1,20.48,7.22q.6-2.14,1.29-4.29v4h96.14Z"/><path class="cls-6" d="M117.91,68.42V105.6h1.37q-4,1.35-8.09,2.31C89.49,113,67,109.64,48.81,96.6S20.24,63.31,18.12,41.12A94.54,94.54,0,0,1,21.22,7c.39-1.43.81-2.85,1.27-4.27V6.94h95.42Z"/><path class="cls-6" d="M117.91,68v37h1.65c-2.67.89-5.36,1.66-8,2.29-21.6,5.08-44,1.73-62.1-11.25S21,62.86,18.87,40.77A94.12,94.12,0,0,1,22,6.84v.1h96Z"/><path class="cls-6" d="M117.91,67.47V104.3h1.92c-2.65.89-5.33,1.65-8,2.28-21.5,5-43.8,1.72-61.8-11.2s-28.3-33-30.4-55A93.91,93.91,0,0,1,22.68,6.65v.29h95.23Z"/><path class="cls-6" d="M117.91,67v36.66h2.19q-4,1.32-8,2.27c-21.4,5-43.59,1.71-61.51-11.15S22.45,62,20.36,40.07A93.68,93.68,0,0,1,23.41,6.46v.48h94.5Z"/><path class="cls-6" d="M117.91,66.52V103h2.46c-2.62.89-5.27,1.64-7.93,2.27-21.3,5-43.38,1.69-61.22-11.1s-28-32.66-30.11-54.44a92.75,92.75,0,0,1,3-33.44v.66h93.76Z"/><path class="cls-6" d="M117.91,66v36.3h2.74c-2.62.88-5.26,1.63-7.9,2.25-21.2,5-43.18,1.69-60.92-11S23.93,61,21.86,39.37a92.31,92.31,0,0,1,3-33.28v.85h93Z"/><path class="cls-6" d="M117.91,65.56v36.13h3c-2.6.87-5.23,1.62-7.86,2.24-21.09,5-43,1.68-60.63-11S24.67,60.59,22.61,39a92.12,92.12,0,0,1,3-33.13v1h92.3Z"/><path class="cls-6" d="M117.91,65.09v36h3.28q-3.89,1.3-7.82,2.23c-21,4.93-42.76,1.67-60.34-10.94S25.4,60.14,23.35,38.68a91.72,91.72,0,0,1,3-33V6.94h91.56Z"/><path class="cls-6" d="M117.91,64.61v35.78h3.55q-3.87,1.29-7.78,2.22c-20.89,4.9-42.55,1.66-60-10.89s-27.5-32-29.54-53.39a91,91,0,0,1,3-32.81V6.94h90.83Z"/><path class="cls-6" d="M117.91,64.13v35.6h3.82c-2.56.87-5.15,1.6-7.74,2.21-20.79,4.89-42.34,1.66-59.75-10.83S26.88,59.23,24.85,38a90.6,90.6,0,0,1,3-32.65V6.94h90.1Z"/><path class="cls-6" d="M117.91,63.65V99.08H122q-3.84,1.29-7.71,2.2c-20.68,4.86-42.14,1.65-59.46-10.78S27.62,58.78,25.6,37.63A90.11,90.11,0,0,1,28.55,5.15V6.94h89.36Z"/><path class="cls-6" d="M117.91,63.18V98.43h4.37q-3.81,1.27-7.67,2.19C94,105.45,72.68,102.26,55.45,89.89S28.35,58.33,26.34,37.28A89.9,89.9,0,0,1,29.28,5v2h88.63Z"/><path class="cls-6" d="M117.91,62.7V97.78h4.64c-2.53.85-5.07,1.57-7.63,2.18-20.48,4.81-41.72,1.63-58.87-10.68s-27-31.41-29-52.35A89.44,89.44,0,0,1,30,4.77V6.94h87.9Z"/><path class="cls-6" d="M117.91,62.22V97.13h4.91c-2.51.84-5,1.56-7.59,2.16-20.38,4.79-41.51,1.63-58.58-10.62S29.83,57.42,27.84,36.58a89,89,0,0,1,2.9-32V6.94h87.17Z"/><path class="cls-6" d="M117.91,61.75V96.48h5.18c-2.5.84-5,1.55-7.55,2.15-20.28,4.76-41.3,1.62-58.28-10.57S30.57,57,28.59,36.24A88.4,88.4,0,0,1,31.48,4.39V6.94h86.43Z"/><path class="cls-6" d="M117.91,61.27V95.82h5.46q-3.74,1.26-7.52,2.15c-20.17,4.74-41.1,1.61-58-10.52S31.3,56.51,29.33,35.89A88.19,88.19,0,0,1,32.21,4.2V6.94h85.7Z"/><path class="cls-6" d="M117.91,60.31V94.52h6c-2.46.83-5,1.54-7.44,2.12-20,4.69-40.68,1.59-57.4-10.41s-26.29-30.62-28.24-51A87,87,0,0,1,33.68,3.83V6.94h84.23Z"/><path class="cls-6" d="M117.91,59.84v34h6.27c-2.45.82-4.92,1.53-7.4,2.11-19.87,4.67-40.47,1.58-57.11-10.35S33.52,55.15,31.58,34.84a86.58,86.58,0,0,1,2.83-31.2v3.3h83.5Z"/><path class="cls-6" d="M117.91,59.36V93.22h6.54c-2.43.82-4.89,1.52-7.36,2.1C97.32,100,76.82,96.89,60.27,85s-26-30.32-27.94-50.53a86.16,86.16,0,0,1,2.81-31V6.94h82.77Z"/><path class="cls-6" d="M117.91,58.88V92.56h6.82c-2.43.82-4.88,1.52-7.33,2.09-19.66,4.62-40.06,1.57-56.52-10.24S35,54.25,33.07,34.14A85.74,85.74,0,0,1,35.88,3.26V6.94h82Z"/><path class="cls-6" d="M117.91,58.41V93h3.46c-1.22.35-2.44.66-3.66.95-19.56,4.6-39.85,1.56-56.23-10.19s-25.75-30-27.66-50A85.52,85.52,0,0,1,36.61,3.07V6.94h81.3Z"/><path class="cls-6" d="M117.91,57.93v35.4H118C98.56,97.9,78.38,94.88,62.08,83.19S36.47,53.34,34.57,33.45A84.89,84.89,0,0,1,37.34,2.88V6.94h80.57Z"/><path class="cls-6" d="M117.91,57.45V92.67h.42C99,97.21,78.9,94.21,62.69,82.58S37.2,52.89,35.32,33.1A84.45,84.45,0,0,1,38.07,2.69V6.94h79.84Z"/><path class="cls-6" d="M117.91,57V92h.73c-19.26,4.53-39.23,1.54-55.35-10S37.94,52.44,36.06,32.75A84,84,0,0,1,38.81,2.51V6.94h79.1Z"/><path class="cls-6" d="M117.91,56.5V91.34h1c-19.15,4.5-39,1.53-55.06-10S38.68,52,36.81,32.4A83.76,83.76,0,0,1,39.54,2.32V6.94h78.37Z"/><path class="cls-6" d="M117.91,56V90.68h1.35c-19.05,4.47-38.81,1.52-54.76-9.93S39.42,51.53,37.56,32.05A83.08,83.08,0,0,1,40.27,2.13V6.94h77.64Z"/><path class="cls-6" d="M117.91,55.54V90h1.66C100.62,94.47,81,91.53,65.1,80.14S40.16,51.08,38.31,31.7A82.42,82.42,0,0,1,41,1.94v5h76.9Z"/><path class="cls-6" d="M117.91,55.07V89.35h2C101,93.78,81.49,90.86,65.7,79.53S40.89,50.62,39.05,31.35a82.23,82.23,0,0,1,2.69-29.6V6.94h76.17Z"/><path class="cls-6" d="M117.91,54.59v34.1h2.28c-18.74,4.4-38.19,1.5-53.88-9.77S41.63,50.17,39.8,31A82,82,0,0,1,42.47,1.56V6.94h75.44Z"/><path class="cls-6" d="M117.91,54.11V88h2.59c-18.64,4.38-38,1.48-53.59-9.72S42.37,49.72,40.55,30.66A81.4,81.4,0,0,1,43.21,1.37V6.94h74.7Z"/><path class="cls-6" d="M117.91,53.64V87.37h2.9C102.27,91.72,83,88.84,67.51,77.7S43.11,49.26,41.3,30.31A80.66,80.66,0,0,1,43.94,1.19V6.94h74Z"/><path class="cls-6" d="M117.91,53.16V86.7h3.21c-18.44,4.33-37.56,1.47-53-9.61S43.84,48.81,42,30A80.45,80.45,0,0,1,44.67,1V6.94h73.24Z"/><path class="cls-6" d="M117.91,52.68V86h3.52c-18.34,4.31-37.35,1.46-52.71-9.56S44.58,48.36,42.79,29.61A80.25,80.25,0,0,1,45.4.81V6.94h72.51Z"/><path class="cls-6" d="M117.91,52.2V85.38h3.83c-18.23,4.28-37.15,1.45-52.42-9.51s-24-28-25.78-46.61A79.6,79.6,0,0,1,46.14.62V6.94h71.77Z"/><path class="cls-6" d="M117.91,51.73v33h4.14C103.92,89,85.11,86.16,69.93,75.26S46.06,47.45,44.29,28.91A78.94,78.94,0,0,1,46.87.43V6.94h71Z"/><path class="cls-6" d="M117.91,51.25v32.8h4.45c-18,4.24-36.73,1.44-51.83-9.39S46.79,47,45,28.56A78.73,78.73,0,0,1,47.6.24v6.7h70.31Z"/><path class="cls-6" d="M117.91,50.77V83.39h4.76c-17.93,4.21-36.52,1.43-51.54-9.34s-23.6-27.5-25.35-45.84A78.22,78.22,0,0,1,48.34.06V6.94h69.57Z"/><path class="cls-6" d="M117.91,50.3V82.73H123c-17.83,4.18-36.31,1.42-51.24-9.29S48.27,46.09,46.53,27.87A75.13,75.13,0,0,1,46.5,14c.22-2.34.53-4.69,1-7v0Z"/><path class="cls-7" d="M117.91,49.82V82.06h5.38c-17.72,4.17-36.11,1.42-50.95-9.23S49,45.64,47.28,27.52a74.27,74.27,0,0,1,0-13.83c.21-2.33.53-4.67,1-7v.25Z"/><path class="cls-6" d="M117.91,49.34V81.4h5.69C106,85.54,87.7,82.81,72.94,72.22s-23.2-27-24.92-45a74.18,74.18,0,0,1,0-13.74c.21-2.32.52-4.65,1-7v.48h69Z"/><path class="cls-6" d="M117.91,48.87V80.74h6c-17.52,4.11-35.69,1.4-50.36-9.13S50.48,44.73,48.77,26.82a73.32,73.32,0,0,1,0-13.66c.2-2.31.52-4.62.94-6.93v.71h68.22Z"/><path class="cls-6" d="M117.91,48.39V80.08h6.31C106.8,84.17,88.74,81.47,74.15,71S51.22,44.28,49.52,26.47a72.46,72.46,0,0,1,0-13.58q.3-3.44.93-6.89v.94h67.48Z"/><path class="cls-6" d="M117.91,47.91v31.5h6.62c-17.32,4.07-35.28,1.38-49.78-9S52,43.83,50.27,26.12a72.45,72.45,0,0,1,0-13.5c.21-2.28.52-4.57.93-6.85V6.94h66.74Z"/><path class="cls-6" d="M117.91,47.43V78.75h6.93c-17.21,4-35.07,1.37-49.48-9S52.69,43.38,51,25.77a72.46,72.46,0,0,1,0-13.42q.3-3.4.92-6.81v1.4h66Z"/><path class="cls-6" d="M117.91,47V79.28h.8q-3.22.43-6.45.56A61.69,61.69,0,0,1,99.51,79,56.75,56.75,0,0,1,76,69.17C61.63,58.89,53.43,42.92,51.76,25.43a71.71,71.71,0,0,1,0-13.35q.3-3.37.92-6.77V6.94h65.25Z"/><path class="cls-6" d="M117.91,46.48V78.61h1.15a63.23,63.23,0,0,1-6.41.55A60.82,60.82,0,0,1,100,78.32a56.39,56.39,0,0,1-23.42-9.76C62.32,58.34,54.17,42.47,52.51,25.08a70.86,70.86,0,0,1,0-13.27q.3-3.36.91-6.73V6.94h64.51Z"/><path class="cls-6" d="M117.91,46V77.94h1.5c-2.13.29-4.25.47-6.38.55a61.48,61.48,0,0,1-12.59-.83A56.09,56.09,0,0,1,77.17,68C63,57.79,54.91,42,53.26,24.73a70.85,70.85,0,0,1,0-13.19c.2-2.22.51-4.45.91-6.69V6.94h63.77Z"/><path class="cls-6" d="M117.91,45.53V77.27h1.85q-3.18.44-6.34.55A60.8,60.8,0,0,1,100.9,77a55.74,55.74,0,0,1-23.13-9.65C63.7,57.24,55.64,41.56,54,24.38a70.86,70.86,0,0,1,0-13.11c.2-2.21.5-4.43.9-6.64V6.94h63Z"/><path class="cls-6" d="M117.91,45.05V76.6h2.2a61.08,61.08,0,0,1-6.3.54,59.49,59.49,0,0,1-12.45-.82,55.45,55.45,0,0,1-23-9.59c-14-10-22-25.62-23.62-42.7a70,70,0,0,1,0-13c.2-2.19.5-4.4.9-6.6V6.94h62.28Z"/><path class="cls-6" d="M117.91,44.09V75.26h2.89c-2.07.28-4.15.46-6.22.54A59.28,59.28,0,0,1,102.29,75a54.64,54.64,0,0,1-22.71-9.47C65.76,55.6,57.86,40.2,56.25,23.33a69.14,69.14,0,0,1,0-12.87c.2-2.17.49-4.34.89-6.52v3h60.8Z"/><path class="cls-6" d="M117.91,43.62v31h3.24q-3.09.42-6.18.54a60,60,0,0,1-12.22-.81A54.44,54.44,0,0,1,80.18,64.9C66.45,55.05,58.6,39.75,57,23a69.15,69.15,0,0,1,0-12.79c.2-2.15.49-4.32.88-6.48V6.94h60.06Z"/><path class="cls-6" d="M117.91,43.14V73.92h3.59a60.8,60.8,0,0,1-6.14.53,58.52,58.52,0,0,1-12.14-.8,54,54,0,0,1-22.43-9.36c-13.65-9.79-21.46-25-23.05-41.65a68.29,68.29,0,0,1,0-12.71q.28-3.22.87-6.45V6.94h59.32Z"/><path class="cls-6" d="M117.91,42.66V73.25h3.94a60,60,0,0,1-6.11.53,57.8,57.8,0,0,1-12.06-.8,53.68,53.68,0,0,1-22.29-9.3C67.83,54,60.07,38.85,58.49,22.29a68.3,68.3,0,0,1,0-12.63q.28-3.19.87-6.41V6.94h58.57Z"/><path class="cls-6" d="M117.91,42.19V72.58h4.29c-2,.28-4,.45-6.07.53a58.51,58.51,0,0,1-12-.8A53.44,53.44,0,0,1,82,63.08C68.52,53.4,60.81,38.39,59.24,21.94a67.44,67.44,0,0,1,0-12.55c.19-2.12.47-4.24.86-6.37V6.94h57.83Z"/><path class="cls-6" d="M117.91,41.71v30.2h4.64a58.64,58.64,0,0,1-6,.52,57.1,57.1,0,0,1-11.92-.79,53.05,53.05,0,0,1-22-9.17C69.21,52.86,61.55,37.94,60,21.59A68.33,68.33,0,0,1,60,9.12c.19-2.1.48-4.22.86-6.33V6.94h57.09Z"/><path class="cls-6" d="M117.91,41.23v30h5a57.4,57.4,0,0,1-6,.52A57.65,57.65,0,0,1,105.07,71,52.84,52.84,0,0,1,83.2,61.86C69.9,52.31,62.28,37.49,60.73,21.24a67.45,67.45,0,0,1,0-12.39c.19-2.09.47-4.19.85-6.28V6.94h56.35Z"/><path class="cls-6" d="M117.91,40.76V70.57h5.33a59.72,59.72,0,0,1-5.95.52,57,57,0,0,1-11.76-.78A52.49,52.49,0,0,1,83.8,61.25C70.58,51.76,63,37,61.48,20.89a66.59,66.59,0,0,1,0-12.31q.28-3.12.85-6.24v4.6h55.6Z"/><path class="cls-6" d="M117.91,40.28V69.9h5.68a58.9,58.9,0,0,1-5.91.51A56.3,56.3,0,0,1,106,69.64a52,52,0,0,1-21.58-9c-13.14-9.43-20.65-24.06-22.18-40.1a65.72,65.72,0,0,1,0-12.23q.27-3.09.84-6.2V6.94h54.86Z"/><path class="cls-6" d="M117.91,39.8V69.74h.15a56.12,56.12,0,0,1-11.6-.77A51.6,51.6,0,0,1,85,60C72,50.66,64.5,36.13,63,20.19A66.61,66.61,0,0,1,63,8q.28-3.07.84-6.16V6.94h54.12Z"/><path class="cls-6" d="M117.91,39.32V69.07h.54a55.45,55.45,0,0,1-11.53-.77,51.3,51.3,0,0,1-21.31-8.88c-13-9.3-20.38-23.75-21.89-39.57a65.85,65.85,0,0,1,0-12.08c.18-2,.46-4.08.83-6.12V6.94h53.38Z"/><path class="cls-6" d="M117.91,38.85V68.4h.93a55.46,55.46,0,0,1-11.46-.76,51,51,0,0,1-21.16-8.83C73.34,49.57,66,35.22,64.47,19.5a65,65,0,0,1,0-12c.18-2,.46-4,.82-6.08V6.94h52.64Z"/><path class="cls-6" d="M117.91,38.37V67.72h1.32A55.34,55.34,0,0,1,107.85,67a50.7,50.7,0,0,1-21-8.77C74,49,66.71,34.77,65.22,19.15a64.12,64.12,0,0,1,0-11.92q.27-3,.82-6V6.94h51.89Z"/><path class="cls-6" d="M117.91,37.89V67.05h1.7a54.61,54.61,0,0,1-11.3-.75,50.34,50.34,0,0,1-20.89-8.71C74.72,48.47,67.45,34.32,66,18.8A64.12,64.12,0,0,1,65.94,7c.18-2,.46-4,.82-6v6h51.15Z"/><path class="cls-6" d="M117.91,37.42v29H120a54.68,54.68,0,0,1-11.23-.75A49.9,49.9,0,0,1,88,57C75.4,47.92,68.18,33.86,66.71,18.45a64,64,0,0,1,0-11.75v.24h51.22Z"/><path class="cls-6" d="M117.91,36.94V65.7h2.48A53.27,53.27,0,0,1,109.23,65a49.55,49.55,0,0,1-20.6-8.59c-12.54-9-19.71-23-21.17-38.27a63.17,63.17,0,0,1,0-11.67v.51h50.47Z"/><path class="cls-6" d="M117.91,36.46V65h2.86a53.78,53.78,0,0,1-11.07-.73,49.39,49.39,0,0,1-20.47-8.54c-12.45-8.93-19.57-22.8-21-38a62.3,62.3,0,0,1,0-11.59v.78h49.72Z"/><path class="cls-6" d="M117.91,36V64.36h3.25a53.85,53.85,0,0,1-11-.73,48.94,48.94,0,0,1-20.32-8.48C77.47,46.28,70.4,32.5,69,17.4a61.45,61.45,0,0,1,0-11.51V6.94h49Z"/><path class="cls-6" d="M117.91,35.51V63.68h3.64A52.47,52.47,0,0,1,110.62,63a48.59,48.59,0,0,1-20.18-8.42C78.16,45.73,71.13,32.05,69.7,17.06a62.43,62.43,0,0,1,0-11.44V6.94h48.23Z"/><path class="cls-6" d="M117.91,35V63h4a52.3,52.3,0,0,1-10.84-.72,48.28,48.28,0,0,1-20-8.36C78.85,45.18,71.87,31.6,70.45,16.71a61.57,61.57,0,0,1,0-11.36V6.94h47.48Z"/><path class="cls-6" d="M117.91,34.55V62.34h4.41a51.58,51.58,0,0,1-10.77-.72,47.84,47.84,0,0,1-19.9-8.3c-12.11-8.69-19-22.18-20.45-37a61.58,61.58,0,0,1,0-11.28V6.94h46.73Z"/><path class="cls-6" d="M117.91,34.08V61.66h4.8A51.63,51.63,0,0,1,112,61a47.64,47.64,0,0,1-19.76-8.25c-12-8.62-18.9-22-20.3-36.7a60.71,60.71,0,0,1,0-11.2V6.94h46Z"/><path class="cls-6" d="M117.91,33.6V61h5.19a51.65,51.65,0,0,1-10.63-.7A47.29,47.29,0,0,1,92.85,52.1C80.91,43.54,74.08,30.24,72.69,15.66a61.62,61.62,0,0,1,0-11.12v2.4h45.24Z"/><path class="cls-6" d="M117.91,33.12v27.2h5.57a50.79,50.79,0,0,1-10.54-.7A47,47,0,0,1,93.46,51.5C81.6,43,74.82,29.79,73.44,15.31a60.74,60.74,0,0,1,0-11V6.94h44.49Z"/><path class="cls-6" d="M117.91,32.64v27h6A50.8,50.8,0,0,1,113.4,59a46.64,46.64,0,0,1-19.34-8.06C82.29,42.44,75.56,29.33,74.19,15a59.87,59.87,0,0,1,0-11V6.94h43.74Z"/><path class="cls-6" d="M117.91,32.17V59h6.35a50.13,50.13,0,0,1-10.4-.69,46.29,46.29,0,0,1-19.2-8C83,41.89,76.3,28.88,74.94,14.61a59,59,0,0,1,0-10.88V6.94h43Z"/><path class="cls-6" d="M117.91,31.69V58.3h6.73a50,50,0,0,1-10.31-.68,45.85,45.85,0,0,1-19.06-7.95C83.67,41.35,77,28.43,75.68,14.27a59.92,59.92,0,0,1,0-10.8V6.94h42.25Z"/><path class="cls-6" d="M117.91,31.21V57.55h2a48.07,48.07,0,0,1-5.09-.6,45.61,45.61,0,0,1-18.92-7.89C84.36,40.8,77.77,28,76.43,13.92a59,59,0,0,1,0-10.72V6.94h41.5Z"/><path class="cls-6" d="M117.91,30.74V56.88h2.39a47.64,47.64,0,0,1-5-.6,45.26,45.26,0,0,1-18.78-7.83c-11.42-8.2-18-20.93-19.29-34.88a58.16,58.16,0,0,1,0-10.64v4h40.75Z"/><path class="cls-6" d="M117.91,30.26v26h2.82a46.29,46.29,0,0,1-5-.6,44.8,44.8,0,0,1-18.64-7.77C85.74,39.7,79.25,27.07,77.93,13.22a57.29,57.29,0,0,1,0-10.56V6.94h40Z"/><path class="cls-6" d="M117.91,29.78V55.53h3.24a45.84,45.84,0,0,1-5-.59,44.5,44.5,0,0,1-18.5-7.71C86.42,39.15,80,26.61,78.67,12.87a57.31,57.31,0,0,1,0-10.48V6.94h39.25Z"/><path class="cls-6" d="M117.91,29.31V54.86h3.67a47.88,47.88,0,0,1-4.94-.58,44.3,44.3,0,0,1-18.36-7.66c-11.17-8-17.56-20.46-18.86-34.1a57.33,57.33,0,0,1,0-10.4V6.94h38.51Z"/><path class="cls-6" d="M117.91,28.83V54.19H122a47.44,47.44,0,0,1-4.9-.58A43.86,43.86,0,0,1,98.89,46C87.8,38.06,81.46,25.71,80.17,12.17a56.45,56.45,0,0,1,0-10.32V6.94h37.76Z"/><path class="cls-6" d="M117.91,28.35V53.52h4.52a46,46,0,0,1-4.86-.58A43.49,43.49,0,0,1,99.49,45.4c-11-7.89-17.29-20.15-18.57-33.58a55.58,55.58,0,0,1,0-10.24V6.94h37Z"/><path class="cls-6" d="M117.91,27.87v24.4H118a43.19,43.19,0,0,1-17.94-7.48C89.18,37,82.94,24.8,81.66,11.48a55.71,55.71,0,0,1,0-10.17V6.94h36.26Z"/><path class="cls-6" d="M117.91,27.4V51.6h.58a42.75,42.75,0,0,1-17.79-7.42c-10.83-7.77-17-19.83-18.29-33A55.73,55.73,0,0,1,82.39,1v5.9h35.52Z"/><path class="cls-6" d="M117.91,26.92v24h1a42.53,42.53,0,0,1-17.66-7.37C90.56,35.86,84.41,23.9,83.16,10.78a54.85,54.85,0,0,1,0-10V6.94h34.77Z"/><path class="cls-6" d="M117.91,26.44V50.27h1.51A42.24,42.24,0,0,1,101.9,43c-10.65-7.64-16.75-19.52-18-32.53a54,54,0,0,1,0-9.93V6.94h34Z"/><path class="cls-6" d="M117.91,26V49.6h2a41.79,41.79,0,0,1-17.37-7.25C91.93,34.77,85.89,23,84.65,10.08a53.89,53.89,0,0,1,0-9.84v6.7h33.27Z"/></g><ellipse class="cls-8" cx="54.41" cy="174.49" rx="32.5" ry="45.5"/></g></g></svg>